<svg width="500" height="373" viewBox="0 0 500 373" fill="none" xmlns="http://www.w3.org/2000/svg">
<path d="M500 327.4H0V327.65H500V327.4Z" fill="#EBEBEB"/>
<path d="M449.9 343.49H416.78V343.74H449.9V343.49Z" fill="#EB45EB"/>
<path d="M331.22 346.21H322.53V346.46H331.22V346.21Z" fill="#EB45EB"/>
<path d="M415.78 334.21H396.59V334.46H415.78V334.21Z" fill="#EB45EB"/>
<path d="M95.65 335.89H52.46V336.14H95.65V335.89Z" fill="#EBEBEB"/>
<path d="M110.89 335.89H104.56V336.14H110.89V335.89Z" fill="#EBEBEB"/>
<path d="M225.15 340.11H131.47V340.36H225.15V340.11Z" fill="#EBEBEB"/>
<path d="M237 282.8H43.91C42.3973 282.797 40.9476 282.195 39.8789 281.124C38.8102 280.054 38.21 278.603 38.21 277.09V5.66C38.2232 4.15603 38.8292 2.71798 39.8964 1.65822C40.9637 0.598458 42.406 0.00257639 43.91 0H237C238.514 0 239.967 0.601588 241.038 1.67242C242.108 2.74325 242.71 4.19561 242.71 5.71V277.09C242.71 278.604 242.108 280.057 241.038 281.128C239.967 282.198 238.514 282.8 237 282.8V282.8ZM43.91 0.200001C42.4637 0.20265 41.0774 0.779065 40.0557 1.80273C39.0339 2.82639 38.46 4.21365 38.46 5.66V277.09C38.46 278.536 39.0339 279.924 40.0557 280.947C41.0774 281.971 42.4637 282.547 43.91 282.55H237C238.447 282.547 239.835 281.971 240.858 280.948C241.881 279.924 242.457 278.537 242.46 277.09V5.66C242.457 4.21273 241.881 2.82549 240.858 1.80212C239.835 0.77874 238.447 0.202644 237 0.200001H43.91Z" fill="#EBEBEB"/>
<path d="M453.31 282.8H260.21C258.696 282.797 257.246 282.195 256.175 281.125C255.105 280.054 254.503 278.604 254.5 277.09V5.66C254.516 4.15511 255.124 2.71708 256.193 1.65759C257.262 0.598109 258.705 0.00254829 260.21 0H453.31C454.812 0.0052045 456.252 0.602249 457.317 1.66173C458.382 2.72121 458.987 4.15775 459 5.66V277.09C459 278.601 458.401 280.05 457.335 281.121C456.268 282.191 454.821 282.795 453.31 282.8V282.8ZM260.21 0.200001C258.763 0.202644 257.375 0.77874 256.352 1.80212C255.329 2.82549 254.753 4.21273 254.75 5.66V277.09C254.753 278.537 255.329 279.924 256.352 280.948C257.375 281.971 258.763 282.547 260.21 282.55H453.31C454.757 282.547 456.145 281.971 457.168 280.948C458.191 279.924 458.767 278.537 458.77 277.09V5.66C458.767 4.21273 458.191 2.82549 457.168 1.80212C456.145 0.77874 454.757 0.202644 453.31 0.200001H260.21Z" fill="#EBEBEB"/>
<path d="M359.32 135.25C388.271 135.25 411.74 111.781 411.74 82.8299C411.74 53.8791 388.271 30.4099 359.32 30.4099C330.369 30.4099 306.9 53.8791 306.9 82.8299C306.9 111.781 330.369 135.25 359.32 135.25Z" fill="#E0E0E0"/>
<path d="M355.34 135.25C384.291 135.25 407.76 111.781 407.76 82.8299C407.76 53.8791 384.291 30.4099 355.34 30.4099C326.389 30.4099 302.92 53.8791 302.92 82.8299C302.92 111.781 326.389 135.25 355.34 135.25Z" fill="#F5F5F5"/>
<path d="M389.603 117.096C408.524 98.1756 408.524 67.4987 389.603 48.5778C370.682 29.6569 340.005 29.6569 321.085 48.5778C302.164 67.4987 302.164 98.1756 321.085 117.096C340.005 136.017 370.682 136.017 389.603 117.096Z" fill="white"/>
<path d="M363.6 118.09C363.336 118.09 363.08 118.002 362.873 117.838C362.667 117.675 362.521 117.446 362.46 117.19L354.2 83.1099C354.142 82.8121 354.2 82.5032 354.364 82.2474C354.527 81.9917 354.783 81.8088 355.078 81.7367C355.372 81.6646 355.684 81.7088 355.947 81.8603C356.21 82.0118 356.404 82.2587 356.49 82.5499L364.74 116.64C364.812 116.944 364.761 117.263 364.598 117.53C364.435 117.796 364.173 117.986 363.87 118.06C363.781 118.08 363.691 118.09 363.6 118.09V118.09Z" fill="#F5F5F5"/>
<path d="M355.34 85.18C355.031 85.1801 354.726 85.1192 354.441 85.0008C354.156 84.8824 353.898 84.7088 353.68 84.49L325.33 56.14C325.112 55.9214 324.939 55.6619 324.821 55.3765C324.704 55.0911 324.643 54.7853 324.644 54.4765C324.645 53.8529 324.893 53.2553 325.335 52.815C325.777 52.3748 326.375 52.128 326.999 52.1289C327.622 52.1298 328.22 52.3785 328.66 52.82L355.34 79.51L370.91 63.94C371.352 63.4998 371.95 63.253 372.574 63.2539C373.197 63.2548 373.795 63.5035 374.235 63.945C374.675 64.3866 374.922 64.985 374.921 65.6086C374.92 66.2321 374.672 66.8298 374.23 67.27L357 84.49C356.56 84.931 355.963 85.1791 355.34 85.18Z" fill="#EBEBEB"/>
<path d="M221.5 320.1H229.4V266H221.5V320.1Z" fill="#F0F0F0"/>
<path d="M61.71 327.4H224.19V320.1H61.71V327.4Z" fill="#F0F0F0"/>
<path d="M221.5 266H56.49V320.1H221.5V266Z" fill="#F5F5F5"/>
<path d="M210.82 275.42H67.16V306.32H210.82V275.42Z" fill="#F0F0F0"/>
<path d="M104.05 279.55H173.95C175.259 279.55 176.32 278.489 176.32 277.18V276.74C176.32 275.431 175.259 274.37 173.95 274.37H104.05C102.741 274.37 101.68 275.431 101.68 276.74V277.18C101.68 278.489 102.741 279.55 104.05 279.55Z" fill="#F5F5F5"/>
<path d="M52.87 266H221.5V261.17H52.87V266Z" fill="#F0F0F0"/>
<path d="M233.19 261.17H221.5V266H233.19V261.17Z" fill="#E6E6E6"/>
<path d="M429.69 208.88H414.29V327.4H429.69V208.88Z" fill="#F0F0F0"/>
<path d="M279.5 327.4H414.29V208.88H279.5V327.4Z" fill="#F5F5F5"/>
<path d="M278.27 316.99H396.61V253.6H278.27V316.99Z" fill="#FAFAFA"/>
<path d="M278.27 246.88L396.61 246.88V226.01H278.27V246.88Z" fill="#FAFAFA"/>
<g style="mix-blend-mode:multiply" opacity="0.7">
<path d="M397.67 253.6H396.61V316.99H397.67V253.6Z" fill="#E6E6E6"/>
</g>
<g style="mix-blend-mode:multiply" opacity="0.7">
<path d="M397.67 226.01H396.61V246.88H397.67V226.01Z" fill="#E6E6E6"/>
</g>
<g style="mix-blend-mode:multiply" opacity="0.7">
<path d="M429.69 213.88H279.16V216.56H429.69V213.88Z" fill="#E6E6E6"/>
</g>
<path d="M431.49 207.26H414.29V215.01H431.49V207.26Z" fill="#F0F0F0"/>
<path d="M277.7 215.01L414.29 215.01V207.26L277.7 207.26V215.01Z" fill="#F5F5F5"/>
<path d="M328.94 184.44C328.011 182.976 327.398 181.335 327.14 179.62C326.869 177.908 326.782 176.171 326.88 174.44C327.094 170.996 327.829 167.604 329.06 164.38C329.646 162.78 330.313 161.211 331.06 159.68C331.86 158.18 332.66 156.68 333.56 155.25C334.46 153.82 335.45 152.44 336.47 151.1C337.49 149.76 338.64 148.51 339.83 147.3C339.25 148.91 338.56 150.43 337.83 151.95C337.1 153.47 336.53 155 335.83 156.48L333.89 160.98L333 163.25L332.54 164.38L332.14 165.52C330.998 168.525 330.092 171.614 329.43 174.76C329.086 176.332 328.852 177.926 328.73 179.53C328.581 181.169 328.651 182.82 328.94 184.44V184.44Z" fill="#E6E6E6"/>
<path d="M309.53 187.09C309.659 184.676 309.447 182.255 308.9 179.9C308.388 177.753 307.385 175.754 305.97 174.06C304.461 172.381 302.675 170.974 300.69 169.9C298.64 168.71 296.38 167.78 294.05 166.68C296.639 166.404 299.258 166.683 301.73 167.5C303.007 167.918 304.229 168.489 305.37 169.2C306.536 169.951 307.59 170.863 308.5 171.91C310.316 174.052 311.371 176.735 311.5 179.54C311.638 182.199 310.95 184.837 309.53 187.09V187.09Z" fill="#E6E6E6"/>
<path d="M310.4 186.74C310.315 183.926 310.051 181.12 309.61 178.34C309.197 175.69 308.462 173.101 307.42 170.63C306.378 168.201 304.946 165.958 303.18 163.99C301.274 161.956 299.155 160.132 296.86 158.55C299.817 159.009 302.607 160.221 304.96 162.07C307.372 163.986 309.266 166.475 310.47 169.31C311.657 172.1 312.247 175.108 312.2 178.14C312.217 181.102 311.604 184.034 310.4 186.74V186.74Z" fill="#E6E6E6"/>
<path d="M327.61 181.63C325.438 178.811 323.593 175.755 322.11 172.52C320.603 169.293 319.362 165.949 318.4 162.52C317.427 159.082 316.78 155.56 316.47 152C316.142 148.441 316.307 144.854 316.96 141.34C317.69 144.85 318.25 148.24 319.05 151.61C319.85 154.98 320.65 158.3 321.6 161.61C322.55 164.92 323.51 168.23 324.54 171.54C325.57 174.85 326.62 178.21 327.61 181.63Z" fill="#E6E6E6"/>
<path d="M326.71 181.38C324.234 178.958 322.028 176.276 320.13 173.38C318.229 170.492 316.557 167.459 315.13 164.31C313.683 161.153 312.531 157.869 311.69 154.5C310.839 151.125 310.452 147.65 310.54 144.17C311.8 147.43 312.89 150.59 314.18 153.7C315.47 156.81 316.75 159.89 318.18 162.94C319.61 165.99 320.99 169.03 322.45 172.09C323.91 175.15 325.32 178.2 326.71 181.38Z" fill="#E6E6E6"/>
<path d="M330.43 184.58C327.626 183.095 325.022 181.26 322.68 179.12C320.322 176.994 318.169 174.65 316.25 172.12C314.292 169.604 312.616 166.881 311.25 164C309.883 161.121 308.973 158.048 308.55 154.89C310.27 157.58 311.79 160.21 313.55 162.72C315.31 165.23 317.01 167.72 318.88 170.11C320.75 172.5 322.62 174.9 324.56 177.28C326.5 179.66 328.47 182.08 330.43 184.58Z" fill="#E6E6E6"/>
<path d="M325 181.4C322.276 180.278 319.75 178.725 317.52 176.8C315.27 174.908 313.256 172.752 311.52 170.38C310.638 169.197 309.823 167.965 309.08 166.69C308.356 165.397 307.712 164.061 307.15 162.69C306 159.974 305.294 157.09 305.06 154.15C306.63 156.66 307.92 159.15 309.48 161.49C310.18 162.7 311.02 163.82 311.75 165C312.48 166.18 313.33 167.28 314.19 168.38C315.843 170.607 317.577 172.79 319.39 174.93C321.15 177.1 323 179.21 325 181.4Z" fill="#E6E6E6"/>
<path d="M329.26 183.11C327.966 182.197 326.933 180.963 326.26 179.53C325.565 178.099 325.077 176.578 324.81 175.01C324.31 171.901 324.398 168.726 325.07 165.65C325.394 164.14 325.794 162.649 326.27 161.18C326.84 159.75 327.35 158.3 328.03 156.93C328.71 155.56 329.43 154.22 330.24 152.93C331.073 151.652 331.971 150.417 332.93 149.23C332.61 150.74 332.16 152.17 331.73 153.6C331.3 155.03 330.94 156.47 330.47 157.86C330 159.25 329.72 160.69 329.29 162.08L328.8 164.19C328.63 164.89 328.43 165.59 328.33 166.3C327.727 169.076 327.418 171.909 327.41 174.75C327.397 176.169 327.525 177.586 327.79 178.98C328.04 180.431 328.537 181.828 329.26 183.11Z" fill="#E6E6E6"/>
<path d="M327.4 179.92C325.208 177.576 323.619 174.735 322.77 171.64C321.847 168.515 321.551 165.239 321.9 162C321.95 161.19 322.15 160.4 322.28 159.6L322.51 158.4L322.86 157.24C323.12 156.47 323.34 155.7 323.63 154.95C323.92 154.2 324.3 153.48 324.63 152.76L325.17 151.69L325.82 150.69L327.14 148.69C328.127 147.459 329.192 146.293 330.33 145.2C329.81 146.71 329.12 148.08 328.56 149.5L327.77 151.63L327.37 152.63L327.05 153.71C326.84 154.42 326.62 155.13 326.39 155.83L325.9 157.98L325.64 159.05L325.49 160.13C325.4 160.85 325.22 161.57 325.18 162.29C324.875 165.201 324.915 168.138 325.3 171.04C325.67 174.068 326.375 177.046 327.4 179.92Z" fill="#E6E6E6"/>
<path d="M323.18 178.7L308.85 165.95L310.97 183.26L323.18 178.7Z" fill="#E6E6E6"/>
<path d="M295.56 176.37H337.14L331.69 207.26H301.01L295.56 176.37Z" fill="#F5F5F5"/>
<path d="M321.54 176.37H337.14L331.69 207.26H323.5L321.54 176.37Z" fill="#EBEBEB"/>
<path d="M373.86 184.5C374.056 183.135 373.998 181.745 373.69 180.4C373.425 179.113 373.013 177.862 372.46 176.67C371.339 174.279 369.918 172.041 368.23 170.01C367.85 169.46 367.36 169.01 366.93 168.48C366.5 167.95 366.06 167.48 365.6 166.95C364.6 165.95 363.74 164.95 362.75 163.95C361.76 162.95 360.81 161.95 359.81 160.95C358.81 159.95 357.81 158.95 356.81 157.86C358.16 158.37 359.44 159 360.74 159.64C362.001 160.334 363.226 161.091 364.41 161.91C365.007 162.319 365.581 162.759 366.13 163.23C366.69 163.69 367.24 164.17 367.79 164.64C368.856 165.646 369.858 166.718 370.79 167.85C372.71 170.162 374.112 172.86 374.9 175.76C375.279 177.228 375.411 178.749 375.29 180.26C375.222 181.78 374.726 183.25 373.86 184.5V184.5Z" fill="#E6E6E6"/>
<path d="M397.24 180.31C396.186 179.402 395.407 178.217 394.99 176.89C394.759 176.206 394.608 175.498 394.54 174.78C394.52 174.414 394.52 174.046 394.54 173.68C394.528 173.314 394.562 172.948 394.64 172.59C395.227 169.745 396.714 167.165 398.88 165.23C399.38 164.74 399.95 164.35 400.48 163.91C401.007 163.472 401.569 163.077 402.16 162.73C402.74 162.39 403.32 162.04 403.92 161.73C404.21 161.57 404.5 161.39 404.81 161.25L405.73 160.86C406.35 160.6 406.97 160.36 407.59 160.12C408.207 159.871 408.842 159.67 409.49 159.52C410.778 159.184 412.083 158.917 413.4 158.72C412.366 159.539 411.288 160.3 410.17 161C409.62 161.33 409.1 161.7 408.58 162.08C408.06 162.46 407.58 162.8 407 163.15C405.91 163.8 405 164.63 404 165.33C403.501 165.68 403.026 166.064 402.58 166.48C402.12 166.88 401.58 167.24 401.2 167.66C399.468 169.191 398.101 171.091 397.2 173.22C397.009 173.755 396.855 174.303 396.74 174.86C396.648 175.439 396.601 176.024 396.6 176.61C396.6 177.871 396.816 179.122 397.24 180.31V180.31Z" fill="#E6E6E6"/>
<path d="M396.17 180.31C394.364 177.957 393.38 175.076 393.37 172.11C393.328 169.072 394.102 166.078 395.61 163.44L396.81 161.54C397.27 160.95 397.76 160.39 398.25 159.83L399 159L399.82 158.28L401.5 156.87C402.687 156.046 403.919 155.288 405.19 154.6C406.494 154.009 407.83 153.488 409.19 153.04C408.19 154.1 407.19 155.04 406.12 155.94C405.05 156.84 404.18 157.87 403.24 158.82C402.8 159.34 402.37 159.82 401.92 160.33L401.25 161.06L400.68 161.86C400.3 162.39 399.88 162.86 399.51 163.42L398.51 165.07C397.242 167.295 396.385 169.731 395.98 172.26C395.566 174.933 395.63 177.659 396.17 180.31Z" fill="#E6E6E6"/>
<path d="M375.14 181.79C375.97 178.7 376.87 175.72 377.74 172.79C378.61 169.86 379.46 166.87 380.24 163.91C381.02 160.95 381.67 157.97 382.24 154.91C382.81 151.85 383.12 148.91 383.39 145.67C384.441 148.724 384.935 151.941 384.85 155.17C384.73 158.384 384.263 161.576 383.46 164.69C382.644 167.785 381.543 170.798 380.17 173.69C378.828 176.584 377.139 179.304 375.14 181.79V181.79Z" fill="#E6E6E6"/>
<path d="M376.18 181.29C377.48 178.29 378.88 175.29 380.26 172.42C381.64 169.55 383.03 166.63 384.36 163.73C385.69 160.83 386.97 157.92 388.16 154.97C389.35 152.02 390.37 148.97 391.37 145.83C391.679 149.15 391.439 152.498 390.66 155.74C389.871 158.964 388.776 162.105 387.39 165.12C385.998 168.111 384.369 170.987 382.52 173.72C380.689 176.467 378.563 179.005 376.18 181.29V181.29Z" fill="#E6E6E6"/>
<path d="M372.11 185.1C374.06 182.42 376.11 179.89 378.11 177.36C380.11 174.83 382.11 172.36 384.05 169.81C385.99 167.26 387.89 164.73 389.71 162.11C391.53 159.49 393.19 156.79 394.88 153.93C394.437 157.235 393.454 160.444 391.97 163.43C390.483 166.396 388.715 169.212 386.69 171.84C384.663 174.443 382.433 176.88 380.02 179.13C377.609 181.402 374.956 183.404 372.11 185.1V185.1Z" fill="#E6E6E6"/>
<path d="M378.23 180.74C380.14 178.35 382.05 176.09 383.93 173.8C385.81 171.51 387.63 169.24 389.41 166.93C391.19 164.62 392.84 162.24 394.41 159.81C395.98 157.38 397.41 154.81 398.95 152.15C398.725 155.224 397.967 158.236 396.71 161.05C395.458 163.86 393.877 166.512 392 168.95C390.14 171.376 388.043 173.61 385.74 175.62C383.474 177.651 380.948 179.372 378.23 180.74V180.74Z" fill="#E6E6E6"/>
<path d="M373.34 183.53C374.425 181.361 374.948 178.954 374.86 176.53C374.728 174.217 374.136 171.953 373.12 169.87L372.78 169.06L372.35 168.28L371.51 166.7C370.84 165.7 370.24 164.63 369.51 163.6C368.78 162.57 368.12 161.54 367.38 160.51C366.603 159.474 365.879 158.399 365.21 157.29C366.36 157.923 367.475 158.617 368.55 159.37C369.599 160.168 370.6 161.026 371.55 161.94C372.024 162.405 372.469 162.899 372.88 163.42C373.307 163.933 373.727 164.453 374.14 164.98L375.21 166.71L375.72 167.59L376.14 168.53C377.36 171.065 377.812 173.901 377.44 176.69C377.262 178.05 376.807 179.36 376.101 180.536C375.396 181.713 374.456 182.732 373.34 183.53V183.53Z" fill="#E6E6E6"/>
<path d="M375.2 180.34C376.023 177.862 376.586 175.305 376.88 172.71C377.15 170.291 376.97 167.843 376.35 165.49C376.038 164.33 375.602 163.207 375.05 162.14C374.5 161.04 373.85 159.992 373.11 159.01C371.518 156.93 369.773 154.971 367.89 153.15C370.569 153.943 373.025 155.355 375.06 157.27C376.121 158.246 377.043 159.363 377.8 160.59C378.58 161.829 379.173 163.177 379.56 164.59C380.313 167.417 380.268 170.397 379.43 173.2C378.673 175.911 377.213 178.373 375.2 180.34V180.34Z" fill="#E6E6E6"/>
<path d="M380.09 177.97L395.73 162.95L395.1 177.68L380.09 177.97Z" fill="#E6E6E6"/>
<path d="M362.98 176.37H404.56L399.11 207.26H368.43L362.98 176.37Z" fill="#F5F5F5"/>
<path d="M388.95 176.37H404.56L399.11 207.26H390.92L388.95 176.37Z" fill="#EBEBEB"/>
<path d="M103.87 35.72V197.72C103.87 204.456 101.194 210.917 96.4305 215.68C91.6671 220.444 85.2065 223.12 78.47 223.12H196.47C203.207 223.12 209.669 220.444 214.434 215.681C219.199 210.918 221.877 204.457 221.88 197.72V35.72H103.87Z" fill="#F5F5F5"/>
<path d="M203.36 76.73H127.11V152.98H203.36V76.73Z" fill="#F0F0F0"/>
<path d="M201.02 74.3799H124.77V150.63H201.02V74.3799Z" fill="white"/>
<path d="M143.49 161.92H124.1V181.31H143.49V161.92Z" fill="white"/>
<path d="M201.01 161.92H181.62V181.31H201.01V161.92Z" fill="white"/>
<path d="M172.25 161.92H152.86V181.31H172.25V161.92Z" fill="white"/>
<path d="M221.9 35.72H103.87V55H221.9V35.72Z" fill="#F0F0F0"/>
<path d="M111 29.5301V41.9101C110.999 42.3635 111.087 42.8127 111.26 43.2319C111.433 43.6511 111.687 44.0319 112.008 44.3525C112.328 44.6732 112.709 44.9272 113.128 45.1002C113.547 45.2731 113.997 45.3614 114.45 45.3601C114.903 45.3601 115.352 45.2708 115.77 45.0975C116.189 44.9241 116.569 44.67 116.89 44.3496C117.21 44.0292 117.464 43.6489 117.637 43.2303C117.811 42.8118 117.9 42.3631 117.9 41.9101V29.5301C117.897 28.6159 117.533 27.7399 116.887 27.0935C116.24 26.447 115.364 26.0827 114.45 26.0801C113.535 26.0801 112.657 26.4436 112.01 27.0906C111.363 27.7376 111 28.6151 111 29.5301V29.5301Z" fill="#E6E6E6"/>
<path d="M207.92 29.5301V41.9101C207.92 42.8251 208.283 43.7026 208.93 44.3496C209.577 44.9966 210.455 45.3601 211.37 45.3601V45.3601C211.823 45.3614 212.273 45.2731 212.692 45.1002C213.111 44.9272 213.492 44.6732 213.812 44.3525C214.133 44.0319 214.387 43.6511 214.56 43.2319C214.733 42.8127 214.821 42.3635 214.82 41.9101V29.5301C214.82 28.6151 214.457 27.7376 213.81 27.0906C213.163 26.4436 212.285 26.0801 211.37 26.0801V26.0801C210.456 26.0827 209.58 26.447 208.933 27.0935C208.287 27.7399 207.923 28.6159 207.92 29.5301Z" fill="#E6E6E6"/>
<path d="M188.53 29.5301V41.9101C188.53 42.3632 188.619 42.8118 188.793 43.2303C188.966 43.6489 189.22 44.0292 189.54 44.3496C189.861 44.67 190.241 44.9241 190.66 45.0975C191.078 45.2709 191.527 45.3601 191.98 45.3601C192.433 45.3601 192.882 45.2709 193.3 45.0975C193.719 44.9241 194.099 44.67 194.42 44.3496C194.74 44.0292 194.994 43.6489 195.167 43.2303C195.341 42.8118 195.43 42.3632 195.43 41.9101V29.5301C195.427 28.6193 195.066 27.7464 194.424 27.1005C193.782 26.4546 192.911 26.088 192 26.0801V26.0801C191.546 26.0788 191.095 26.167 190.675 26.3396C190.255 26.5123 189.873 26.7661 189.55 27.0864C189.228 27.4068 188.972 27.7875 188.797 28.2068C188.622 28.626 188.531 29.0757 188.53 29.5301V29.5301Z" fill="#E6E6E6"/>
<path d="M169.14 29.5301V41.9101C169.139 42.3635 169.227 42.8127 169.4 43.2319C169.573 43.6511 169.827 44.0319 170.148 44.3525C170.468 44.6732 170.849 44.9272 171.268 45.1002C171.687 45.2731 172.137 45.3614 172.59 45.3601C173.499 45.3522 174.368 44.9849 175.007 44.3384C175.646 43.692 176.003 42.819 176 41.9101V29.5301C176 28.6168 175.638 27.7408 174.993 27.0941C174.348 26.4474 173.473 26.0827 172.56 26.0801V26.0801C171.65 26.088 170.78 26.455 170.14 27.1011C169.499 27.7472 169.14 28.6203 169.14 29.5301V29.5301Z" fill="#E6E6E6"/>
<path d="M149.75 29.5301V41.9101C149.749 42.3627 149.837 42.8111 150.009 43.2296C150.181 43.6481 150.434 44.0285 150.754 44.349C151.074 44.6695 151.453 44.9238 151.871 45.0973C152.289 45.2708 152.737 45.3601 153.19 45.3601V45.3601C153.643 45.3614 154.093 45.2731 154.512 45.1002C154.931 44.9272 155.312 44.6732 155.632 44.3525C155.953 44.0319 156.207 43.6511 156.38 43.2319C156.553 42.8127 156.641 42.3635 156.64 41.9101V29.5301C156.64 28.6151 156.277 27.7376 155.63 27.0906C154.983 26.4436 154.105 26.0801 153.19 26.0801V26.0801C152.277 26.0827 151.402 26.4474 150.757 27.0941C150.112 27.7408 149.75 28.6168 149.75 29.5301Z" fill="#E6E6E6"/>
<path d="M130.35 29.5301V41.9101C130.35 42.3631 130.439 42.8118 130.613 43.2303C130.786 43.6489 131.04 44.0292 131.36 44.3496C131.681 44.67 132.061 44.9241 132.48 45.0975C132.898 45.2708 133.347 45.3601 133.8 45.3601C134.253 45.3601 134.702 45.2708 135.12 45.0975C135.539 44.9241 135.919 44.67 136.24 44.3496C136.56 44.0292 136.814 43.6489 136.987 43.2303C137.161 42.8118 137.25 42.3631 137.25 41.9101V29.5301C137.247 28.6159 136.883 27.7399 136.237 27.0935C135.59 26.447 134.714 26.0827 133.8 26.0801V26.0801C132.886 26.0827 132.01 26.447 131.363 27.0935C130.717 27.7399 130.353 28.6159 130.35 29.5301Z" fill="#E6E6E6"/>
<path d="M185.87 212.44C185.87 215.259 186.99 217.963 188.983 219.956C190.977 221.95 193.681 223.07 196.5 223.07H63.69C60.8707 223.07 58.167 221.95 56.1735 219.956C54.1799 217.963 53.06 215.259 53.06 212.44H185.87Z" fill="#E6E6E6"/>
<path d="M250 372.56C357.082 372.56 443.89 367.492 443.89 361.24C443.89 354.988 357.082 349.92 250 349.92C142.918 349.92 56.11 354.988 56.11 361.24C56.11 367.492 142.918 372.56 250 372.56Z" fill="#F5F5F5"/>
<path opacity="0.2" d="M269.59 265.73C269.59 265.73 196.1 309.12 196.1 350.23H343.1C343.09 309.12 269.59 265.73 269.59 265.73Z" fill="#3FAE3E"/>
<path opacity="0.2" d="M269.59 317.5C269.59 317.5 201.73 334.31 201.73 350.23H337.45C337.45 334.31 269.59 317.5 269.59 317.5Z" fill="#3FAE3E"/>
<path opacity="0.3" d="M278.51 277.71C292.31 291.28 319.13 321.35 319.13 350.23H300.74C300.74 321.35 286.06 291.28 278.51 277.71Z" fill="white"/>
<path opacity="0.2" d="M269.59 265.73C269.59 265.73 196.1 222.34 196.1 181.23H343.1C343.09 222.34 269.59 265.73 269.59 265.73Z" fill="#3FAE3E"/>
<path opacity="0.2" d="M269.59 261.77C269.59 261.77 232.07 243.77 232.07 226.67H307.12C307.12 243.74 269.59 261.77 269.59 261.77Z" fill="#3FAE3E"/>
<path opacity="0.3" d="M261.58 253.75C247.79 240.18 221 210.11 221 181.23H239.39C239.35 210.11 254 240.18 261.58 253.75Z" fill="white"/>
<path opacity="0.3" d="M278.51 253.75C292.31 240.18 318.46 206.63 319.13 181.23H314.23C311.93 212.2 289.43 240.62 278.51 253.75Z" fill="white"/>
<path d="M333.11 166.72H324.78V167.72H333.11V166.72Z" fill="#3FAE3E"/>
<path d="M361.39 180.46H360.39C360.387 177.084 359.046 173.846 356.659 171.458C354.273 169.07 351.036 167.725 347.66 167.72H338.87V166.72H347.66C351.301 166.728 354.79 168.178 357.363 170.754C359.937 173.329 361.385 176.819 361.39 180.46V180.46Z" fill="#3FAE3E"/>
<path d="M347.65 170.22H191.53C185.875 170.22 181.29 174.805 181.29 180.46V182C181.29 187.655 185.875 192.24 191.53 192.24H347.65C353.305 192.24 357.89 187.655 357.89 182V180.46C357.89 174.805 353.305 170.22 347.65 170.22Z" fill="#3FAE3E"/>
<path d="M347.65 339.22H191.53C185.875 339.22 181.29 343.805 181.29 349.46V351C181.29 356.655 185.875 361.24 191.53 361.24H347.65C353.305 361.24 357.89 356.655 357.89 351V349.46C357.89 343.805 353.305 339.22 347.65 339.22Z" fill="#3FAE3E"/>
<path d="M140.72 249.52L133.94 243.5L145.5 225.75L152.28 231.76L140.72 249.52Z" fill="#FF8B7B"/>
<path d="M135.34 239.68L143.96 245.68C144.034 245.726 144.097 245.786 144.148 245.856C144.198 245.927 144.234 246.007 144.254 246.091C144.273 246.176 144.276 246.263 144.261 246.349C144.247 246.435 144.216 246.516 144.17 246.59L139.85 253.71C139.601 254.068 139.222 254.314 138.793 254.394C138.365 254.475 137.922 254.383 137.56 254.14C134.56 252.01 133.45 250.97 129.86 248.07C126.312 245.281 122.907 242.314 119.66 239.18C117 236.42 119.81 233.75 121.22 234.7C124.55 236.96 130.34 239.45 133.69 239.25C134.273 239.204 134.854 239.355 135.34 239.68V239.68Z" fill="#263238"/>
<path opacity="0.2" d="M152.27 231.77L145.49 225.75L139.93 234.3L146.88 240.07L152.27 231.77Z" fill="black"/>
<path d="M221.25 143.1C221.25 143.1 175.75 139.99 170.11 155.41C157.28 190.47 140.59 227.66 140.59 227.66L154 237.37C154 237.37 182.35 194.02 191 166.19C208.5 170.44 240.14 174.07 250.33 162.37C259.03 152.37 252.52 143.1 252.52 143.1H221.25Z" fill="#263238"/>
<path opacity="0.3" d="M182.28 170.35C181.22 174.63 179.61 186.89 178.61 195.02C180.82 190.74 182.92 186.4 184.81 182.16L182.28 170.35Z" fill="black"/>
<path d="M153.14 241.76L137.93 229.84L141.04 223.16L158.04 236.15L153.14 241.76Z" fill="#3FAE3E"/>
<path d="M131.69 239.13C132.395 239.589 133.146 239.975 133.93 240.28C133.969 240.293 134.011 240.296 134.051 240.286C134.092 240.277 134.129 240.257 134.158 240.228C134.187 240.198 134.207 240.161 134.217 240.121C134.226 240.081 134.224 240.039 134.21 240C134.08 239.66 132.94 236.67 131.75 236.38C131.614 236.349 131.471 236.352 131.337 236.391C131.202 236.429 131.079 236.501 130.98 236.6C130.813 236.732 130.683 236.906 130.604 237.105C130.525 237.303 130.5 237.519 130.53 237.73C130.732 238.323 131.145 238.821 131.69 239.13V239.13ZM133.62 239.68C132.05 239 131.07 238.25 130.96 237.68C130.943 237.541 130.963 237.399 131.02 237.271C131.076 237.142 131.166 237.032 131.28 236.95C131.326 236.9 131.385 236.864 131.45 236.844C131.515 236.825 131.584 236.823 131.65 236.84C132.29 237 133.12 238.49 133.62 239.68Z" fill="#3FAE3E"/>
<path d="M133.88 240.25C133.913 240.259 133.947 240.259 133.98 240.25C134.017 240.254 134.055 240.249 134.09 240.235C134.125 240.221 134.156 240.199 134.18 240.17C134.25 240.09 135.95 238 135.7 236.71C135.667 236.545 135.597 236.39 135.494 236.256C135.392 236.123 135.261 236.015 135.11 235.94C134.956 235.844 134.775 235.8 134.595 235.817C134.414 235.833 134.244 235.908 134.11 236.03C133.35 236.74 133.38 239.14 133.83 240.13C133.837 240.173 133.854 240.215 133.88 240.25V240.25ZM134.99 236.42C135.062 236.468 135.124 236.53 135.172 236.602C135.221 236.674 135.254 236.755 135.27 236.84C135.42 237.6 134.61 238.91 134.08 239.63C133.8 238.63 133.89 236.85 134.38 236.39C134.48 236.3 134.62 236.21 134.91 236.39L134.99 236.42Z" fill="#3FAE3E"/>
<path d="M200.5 260.01L191.75 261.76L190.13 238.33L199.02 238.61L200.5 260.01Z" fill="#FF8B7B"/>
<path d="M190.56 258.56L200.56 254.35C200.642 254.31 200.731 254.286 200.822 254.281C200.913 254.276 201.004 254.289 201.09 254.32C201.176 254.351 201.255 254.398 201.322 254.46C201.389 254.522 201.442 254.597 201.48 254.68L205.3 262.36C205.475 262.775 205.479 263.243 205.313 263.662C205.147 264.081 204.822 264.418 204.41 264.6C200.91 266.01 199.17 266.5 194.78 268.36C192.08 269.5 184.78 272.8 180.88 273.77C176.98 274.74 176.1 270.83 177.68 270.07C181.42 268.27 187.62 262.78 189.29 259.75C189.574 259.227 190.02 258.81 190.56 258.56V258.56Z" fill="#263238"/>
<path d="M188.07 261.44C188.858 261.08 189.605 260.637 190.3 260.12C190.334 260.093 190.361 260.058 190.377 260.017C190.393 259.977 190.397 259.933 190.39 259.89C190.378 259.848 190.355 259.81 190.324 259.78C190.292 259.75 190.253 259.729 190.21 259.72C189.85 259.64 186.61 258.99 185.7 259.87C185.596 259.97 185.521 260.096 185.48 260.234C185.44 260.373 185.436 260.52 185.47 260.66C185.492 260.876 185.572 261.083 185.7 261.258C185.828 261.434 186.001 261.573 186.2 261.66C186.829 261.821 187.495 261.742 188.07 261.44V261.44ZM189.6 260.06C188.15 261.06 186.96 261.49 186.37 261.26C186.238 261.2 186.126 261.104 186.045 260.984C185.964 260.864 185.917 260.724 185.91 260.58C185.891 260.512 185.89 260.44 185.907 260.371C185.925 260.303 185.96 260.24 186.01 260.19C186.5 259.72 188.3 259.84 189.6 260.06Z" fill="#3FAE3E"/>
<path d="M190.25 260.15C190.284 260.132 190.315 260.109 190.34 260.08C190.357 260.048 190.365 260.012 190.365 259.975C190.365 259.939 190.357 259.902 190.34 259.87C190.34 259.76 189.42 257.12 188.16 256.63C187.998 256.565 187.823 256.54 187.649 256.555C187.476 256.571 187.308 256.627 187.16 256.72C186.985 256.798 186.841 256.934 186.754 257.105C186.667 257.276 186.64 257.472 186.68 257.66C186.88 258.66 188.99 260.01 190.1 260.16C190.149 260.176 190.203 260.173 190.25 260.15ZM187.52 257.06C187.602 257.025 187.691 257.008 187.78 257.008C187.869 257.008 187.958 257.025 188.04 257.06C188.79 257.35 189.48 258.78 189.82 259.64C188.82 259.31 187.29 258.28 187.16 257.58C187.16 257.45 187.16 257.28 187.43 257.12L187.52 257.06Z" fill="#3FAE3E"/>
<path opacity="0.2" d="M199.03 238.62L190.13 238.33L190.98 250.57L199.84 250.41L199.03 238.62Z" fill="black"/>
<path d="M243.35 143.1C243.35 143.1 178.35 149.25 180.69 168.82C184.11 197.05 186.61 246.48 186.61 246.48L203.18 247.13C203.18 247.13 209.4 203.67 205.76 174.76C222.59 174.76 259.15 175.65 265.58 166.95C273.21 156.63 269.68 143.1 269.68 143.1H243.35Z" fill="#263238"/>
<path d="M205.01 248.15L185.12 247.16L184.41 238.51L206.22 240.01L205.01 248.15Z" fill="#3FAE3E"/>
<path d="M228.92 85.7899C228.78 87.5799 228.62 89.1699 228.4 90.8399C228.18 92.5099 227.97 94.1399 227.71 95.7899C227.23 99.0799 226.57 102.35 225.83 105.64C225.09 108.93 224.18 112.21 223.04 115.52C221.883 119.002 220.364 122.354 218.51 125.52C217.403 127.383 216.058 129.094 214.51 130.61C214.1 130.993 213.669 131.354 213.22 131.69C212.81 132.03 212.4 132.32 211.98 132.61C211.18 133.174 210.349 133.691 209.49 134.16C206.319 135.885 202.965 137.25 199.49 138.23C197.84 138.74 196.18 139.15 194.49 139.52C192.8 139.89 191.19 140.21 189.49 140.47C186.181 141.011 182.841 141.345 179.49 141.47C178.664 141.505 177.853 141.239 177.208 140.722C176.562 140.206 176.126 139.472 175.98 138.659C175.833 137.845 175.986 137.005 176.411 136.296C176.836 135.587 177.503 135.055 178.29 134.8L178.42 134.75C184.284 132.895 190.037 130.705 195.65 128.19C198.231 127.022 200.701 125.623 203.03 124.01C203.56 123.63 204.03 123.24 204.51 122.85C204.73 122.66 204.96 122.47 205.15 122.27C205.327 122.111 205.494 121.94 205.65 121.76C206.314 120.957 206.884 120.082 207.35 119.15C208.563 116.685 209.538 114.11 210.26 111.46C211.07 108.65 211.77 105.72 212.35 102.74C212.93 99.7599 213.45 96.7399 213.94 93.6799C214.43 90.6199 214.8 87.4999 215.14 84.5999V84.4299C215.39 82.6763 216.308 81.0872 217.703 79.9943C219.097 78.9015 220.859 78.3893 222.622 78.5648C224.384 78.7403 226.011 79.5899 227.162 80.9362C228.314 82.2824 228.9 84.0213 228.8 85.7899H228.92Z" fill="#3FAE3E"/>
<path d="M179.82 133L174.82 133.31L178.82 142.51C178.82 142.51 187.47 142.32 187.29 138.06L185.73 136.06C185.016 135.162 184.121 134.426 183.102 133.898C182.084 133.371 180.965 133.065 179.82 133V133Z" fill="#FF8B7B"/>
<path d="M169.34 134.07L173.66 142.53H178.81L174.81 133.33L169.34 134.07Z" fill="#FF8B7B"/>
<path d="M228.2 71.61L237.87 69.61L245.57 68.5C246.67 68.3201 247.788 68.2698 248.9 68.35C251.855 68.6179 254.658 69.7811 256.934 71.6841C259.211 73.5871 260.852 76.1393 261.64 79C263.57 86 265.31 94.59 266.64 102.2C268.5 112.77 269.46 128.65 269.64 143.09H223.83C222.83 116.94 217.27 100.09 215.38 89.64C214.811 86.4851 215.294 83.2306 216.756 80.3775C218.218 77.5244 220.577 75.2309 223.47 73.85L228.2 71.61Z" fill="#3FAE3E"/>
<path d="M223.83 77.36C223.94 81.66 224.83 96.99 229.44 105.7C230.25 97.54 239.94 72.7 239.94 72.7L223.83 77.36Z" fill="#F5F5F5"/>
<path opacity="0.3" d="M267.69 109.38C267.69 109.22 267.69 109.07 267.63 108.9L267.54 108.18C267.49 107.79 267.44 107.4 267.39 107.03L267.24 105.96L267.09 104.96C267.09 104.68 267 104.39 266.96 104.12C266.86 103.48 266.76 102.86 266.65 102.25C266.32 100.38 265.97 98.4399 265.59 96.4899V96.3299C265.21 94.3299 264.82 92.3999 264.4 90.4499V90.3199C264.23 89.4799 264.05 88.6599 263.86 87.8299L263.65 86.9099L263.29 85.3199L262.99 84.0799L262.93 83.8199C262.53 82.1799 262.12 80.5699 261.7 79.0499L254.75 75.3899C255.55 78.4599 256.31 81.8399 257.03 85.2999C256.198 85.7352 255.431 86.2837 254.75 86.9299C253.09 88.4099 253.15 91.5599 254.81 95.2899C259.405 105.956 261.95 117.392 262.31 129C262.52 133.71 262.65 138.48 262.71 143.11H269.71C269.51 131.64 268.87 119.28 267.69 109.38Z" fill="black"/>
<path d="M234.27 52.3398L230.34 58.3398L225 66.4898C225.687 67.19 226.246 68.0058 226.65 68.8998C227.65 70.8998 228.43 72.3398 224.3 75.1498C223.42 75.7498 223.39 76.6998 223.59 77.7498C223.83 79.0298 224.59 80.3698 229.03 79.5798C233.321 78.7544 237.237 76.5826 240.21 73.3799C241.69 71.8899 241.35 70.7798 239.92 69.2398C235.88 64.8898 234.67 57.9398 234.27 52.3398Z" fill="#FF8B7B"/>
<path d="M224.83 79.73L227.66 81.51L232.26 79.56C231.176 78.4654 229.778 77.735 228.26 77.47C226.938 77.9085 225.755 78.6881 224.83 79.73V79.73Z" fill="#263238"/>
<path d="M228.21 77.47C230.32 78.34 231.38 80.3 232.34 82.56C232.34 82.56 242.45 74.9 242.66 69.85C242.12 68.13 239.59 68.43 239.59 68.43C239.59 68.43 236.51 73.77 228.21 77.47Z" fill="white"/>
<path d="M228.21 77.4698C227.224 77.8687 226.387 78.5641 225.813 79.4599C225.24 80.3557 224.959 81.4075 225.01 82.4698C225.01 82.4698 220.51 77.1898 224.17 73.1998C225.163 72.6788 226.218 72.2856 227.31 72.0298C227.31 72.0298 226.21 74.2298 228.21 77.4698Z" fill="white"/>
<path d="M228.55 80.6799H227.26C226.84 81.3999 226.26 90.7799 226.03 95.7699C226.648 98.6832 227.556 101.527 228.74 104.26C228.736 104.293 228.736 104.327 228.74 104.36C228.81 104.52 228.88 104.67 228.96 104.82C229.1 105.12 229.24 105.42 229.4 105.7C229.862 102.602 230.581 99.5483 231.55 96.5699C230.23 90.7899 228.55 80.6799 228.55 80.6799Z" fill="#263238"/>
<path opacity="0.2" d="M226.32 64.4799L229.6 58.6699C229.66 58.8099 229.74 58.9799 229.82 59.1399C230.108 59.8651 230.342 60.6105 230.52 61.3699C231.12 63.9599 229.12 67.6399 226.91 69.3699C226.82 69.2099 226.74 69.0399 226.65 68.8699C226.257 68.0303 225.748 67.2495 225.14 66.5499L225.01 66.4499L226.32 64.4799Z" fill="black"/>
<path d="M210.34 52C209.55 48.45 215.2 43.54 215.2 43.54L208.51 41.21C205.49 43.38 207.45 49.57 210.34 52Z" fill="#263238"/>
<path d="M232.88 41.74C234.46 50.62 235.88 55.74 232.54 61.41C231.493 63.2718 229.957 64.8118 228.099 65.8635C226.24 66.9152 224.129 67.4385 221.994 67.3767C219.859 67.3149 217.781 66.6704 215.986 65.513C214.191 64.3555 212.747 62.7292 211.81 60.81C208.06 53.49 206.11 40.21 213.74 34.38C215.357 33.0764 217.288 32.2206 219.34 31.8985C221.392 31.5764 223.492 31.7992 225.431 32.5447C227.369 33.2901 229.078 34.532 230.385 36.1459C231.693 37.7598 232.553 39.6889 232.88 41.74V41.74Z" fill="#FF8B7B"/>
<path d="M233 50.72L228.8 49.57V44.17C228.8 44.17 223.49 41.17 224.31 37.42C224.717 35.3117 225.289 33.2387 226.02 31.22C226.02 31.22 234.44 30.68 237.02 31.76C236.352 32.484 235.626 33.1528 234.85 33.76C236.869 35.1568 238.601 36.929 239.95 38.98C238.896 39.2149 237.91 39.6906 237.07 40.37C237.07 40.37 238.17 47.78 233 50.72Z" fill="#263238"/>
<path d="M223.34 25.4599C226.43 27.3999 224.64 30.9599 224.64 30.9599L232.91 31.1299C232.47 28.5199 225.3 25.3299 223.34 25.4599Z" fill="#263238"/>
<path d="M226.57 39.2398C225.98 40.8998 219.28 42.9398 213.17 43.1398C210.125 43.0737 207.111 42.5061 204.25 41.4598C205.113 40.5738 206.129 39.8521 207.25 39.3298C203.56 38.4198 198.89 35.1798 197.6 32.5398C200.294 31.5769 203.205 31.3898 206 31.9998C205.085 31.2276 204.334 30.2806 203.789 29.2142C203.245 28.1479 202.919 26.9837 202.83 25.7898C202.83 25.7898 218.47 31.9898 224.49 29.4198C231.03 26.6198 236 31.8698 231.7 35.8698C227.4 39.8698 226.57 39.2398 226.57 39.2398Z" fill="#263238"/>
<path d="M237.66 48.1698C237.745 50.1283 237.108 52.0499 235.87 53.5698C234.25 55.4998 231.73 53.9598 231.15 51.5698C230.63 49.3998 231.31 46.0498 233.44 45.0098C235.57 43.9698 237.55 45.7398 237.66 48.1698Z" fill="#FF8B7B"/>
<path d="M219.36 49.9999C219.58 50.6999 219.36 51.3899 218.96 51.5599C218.56 51.7299 217.96 51.2899 217.73 50.5599C217.5 49.8299 217.73 49.1699 218.13 48.9999C218.53 48.8299 219.13 49.2599 219.36 49.9999Z" fill="#263238"/>
<path d="M211.61 52.7999C211.83 53.4899 211.61 54.1899 211.21 54.3499C210.81 54.5099 210.21 54.0899 209.98 53.3499C209.75 52.6099 209.98 51.9599 210.38 51.7999C210.78 51.6399 211.38 52.0999 211.61 52.7999Z" fill="#263238"/>
<path d="M214.26 52.4299C214.293 54.4994 214.05 56.5641 213.54 58.5699C214.047 58.6779 214.573 58.672 215.077 58.5527C215.582 58.4334 216.055 58.2036 216.46 57.8799L214.26 52.4299Z" fill="#A02724"/>
<path d="M219 60.5498C219.803 60.2806 220.544 59.8535 221.179 59.2936C221.815 58.7338 222.332 58.0525 222.7 57.2898C222.72 57.2367 222.719 57.1779 222.696 57.1257C222.674 57.0735 222.632 57.032 222.58 57.0098C222.554 56.9983 222.527 56.992 222.499 56.9913C222.471 56.9906 222.443 56.9955 222.417 57.0057C222.391 57.016 222.367 57.0314 222.347 57.051C222.327 57.0706 222.311 57.094 222.3 57.1198C221.894 57.9468 221.303 58.6693 220.573 59.2311C219.843 59.793 218.993 60.1792 218.09 60.3598C218.062 60.3656 218.036 60.3771 218.012 60.3935C217.989 60.41 217.969 60.431 217.954 60.4553C217.939 60.4797 217.929 60.5068 217.925 60.5351C217.921 60.5634 217.923 60.5922 217.93 60.6198C217.942 60.6742 217.975 60.7215 218.022 60.7515C218.069 60.7815 218.126 60.7917 218.18 60.7798C218.458 60.721 218.732 60.6442 219 60.5498V60.5498Z" fill="#263238"/>
<path d="M221.08 45.8998C221.142 45.8631 221.193 45.8116 221.23 45.7498C221.262 45.7034 221.284 45.6512 221.295 45.5962C221.306 45.5412 221.306 45.4845 221.295 45.4295C221.283 45.3745 221.261 45.3223 221.23 45.276C221.198 45.2296 221.157 45.1902 221.11 45.1598C220.548 44.7837 219.902 44.5506 219.23 44.4808C218.557 44.4111 217.877 44.5069 217.25 44.7598C217.199 44.7841 217.153 44.8183 217.115 44.8603C217.077 44.9023 217.047 44.9515 217.028 45.0049C217.009 45.0583 217.001 45.1149 217.004 45.1715C217.007 45.2281 217.021 45.2836 217.045 45.3348C217.069 45.386 217.103 45.432 217.145 45.47C217.188 45.508 217.237 45.5374 217.29 45.5564C217.343 45.5754 217.4 45.5838 217.457 45.5809C217.513 45.5781 217.569 45.5641 217.62 45.5398C218.11 45.3496 218.639 45.2811 219.162 45.3403C219.684 45.3995 220.185 45.5847 220.62 45.8798C220.687 45.9264 220.766 45.953 220.847 45.9566C220.929 45.9601 221.009 45.9404 221.08 45.8998V45.8998Z" fill="#263238"/>
<path d="M210.07 48.5899C210.089 48.5212 210.089 48.4486 210.07 48.3799C210.026 48.2755 209.942 48.1927 209.837 48.1497C209.732 48.1066 209.615 48.1067 209.51 48.1499C208.88 48.3944 208.321 48.7908 207.881 49.3037C207.441 49.8166 207.135 50.4302 206.99 51.0899C206.987 51.1935 207.022 51.2946 207.088 51.3745C207.154 51.4545 207.247 51.5078 207.349 51.5249C207.451 51.5419 207.556 51.5215 207.645 51.4673C207.733 51.4131 207.799 51.3288 207.83 51.2299C207.955 50.7155 208.201 50.2387 208.55 49.84C208.898 49.4414 209.337 49.1326 209.83 48.9399C209.897 48.9073 209.954 48.8579 209.996 48.7966C210.038 48.7352 210.064 48.664 210.07 48.5899V48.5899Z" fill="#263238"/>
<path d="M259.51 74.7C260.61 76.06 261.57 77.29 262.51 78.6C263.45 79.91 264.43 81.21 265.35 82.54C267.22 85.19 268.96 87.94 270.66 90.74C272.36 93.54 273.94 96.46 275.36 99.55C276.901 102.756 278.124 106.105 279.01 109.55C279.507 111.553 279.769 113.607 279.79 115.67C279.765 117.733 279.469 119.784 278.91 121.77C277.914 125.228 276.461 128.537 274.59 131.61C273.73 133.08 272.8 134.49 271.83 135.85C270.86 137.21 269.83 138.53 268.83 139.8C266.743 142.354 264.473 144.753 262.04 146.98C261.431 147.523 260.649 147.83 259.833 147.848C259.018 147.866 258.223 147.593 257.591 147.078C256.959 146.562 256.531 145.839 256.384 145.036C256.237 144.234 256.381 143.406 256.79 142.7L256.88 142.55C259.985 137.512 262.7 132.243 265 126.79C266.032 124.332 266.783 121.766 267.24 119.14C267.407 118.085 267.451 117.015 267.37 115.95C267.25 114.896 267.022 113.857 266.69 112.85C265.825 110.293 264.738 107.817 263.44 105.45C262.11 102.94 260.61 100.45 259.01 97.92C257.41 95.39 255.73 92.92 254.01 90.49L251.38 86.83C250.5 85.64 249.58 84.37 248.75 83.28L248.69 83.2C247.563 81.7704 247.05 79.9517 247.263 78.1439C247.477 76.336 248.4 74.6871 249.83 73.56C251.26 72.4328 253.078 71.9197 254.886 72.1335C256.694 72.3473 258.343 73.2704 259.47 74.7H259.51Z" fill="#3FAE3E"/>
<path d="M164.23 148.47L249.31 144.62C249.578 144.602 249.848 144.639 250.101 144.728C250.355 144.817 250.589 144.956 250.788 145.137C250.986 145.318 251.147 145.538 251.259 145.782C251.371 146.027 251.433 146.291 251.44 146.56L162.29 150.56C162.278 150.295 162.319 150.03 162.41 149.781C162.501 149.532 162.642 149.303 162.822 149.109C163.003 148.914 163.22 148.757 163.462 148.648C163.704 148.538 163.965 148.478 164.23 148.47V148.47Z" fill="#3FAE3E"/>
<g opacity="0.6">
<path opacity="0.6" d="M164.23 148.47L249.31 144.62C249.578 144.602 249.848 144.639 250.101 144.728C250.355 144.817 250.589 144.956 250.788 145.137C250.986 145.318 251.147 145.538 251.259 145.782C251.371 146.027 251.433 146.291 251.44 146.56L162.29 150.56C162.278 150.295 162.319 150.03 162.41 149.781C162.501 149.532 162.642 149.303 162.822 149.109C163.003 148.914 163.22 148.757 163.462 148.648C163.704 148.538 163.965 148.478 164.23 148.47V148.47Z" fill="white"/>
</g>
<path d="M150.69 109L211.22 106.26C211.608 106.265 211.986 106.39 212.3 106.617C212.615 106.844 212.853 107.163 212.98 107.53L224.6 144.4C224.663 144.552 224.687 144.718 224.67 144.881C224.653 145.045 224.596 145.202 224.504 145.339C224.412 145.475 224.288 145.587 224.142 145.664C223.997 145.741 223.835 145.781 223.67 145.78L163.14 148.52C162.754 148.516 162.378 148.393 162.065 148.168C161.752 147.942 161.516 147.625 161.39 147.26L149.77 110.38C149.708 110.229 149.684 110.064 149.7 109.901C149.716 109.738 149.772 109.582 149.863 109.445C149.954 109.309 150.077 109.197 150.221 109.12C150.365 109.042 150.526 109.001 150.69 109Z" fill="#3FAE3E"/>
<path opacity="0.6" d="M150.69 109L211.22 106.26C211.608 106.265 211.986 106.39 212.3 106.617C212.615 106.844 212.853 107.163 212.98 107.53L224.6 144.4C224.663 144.552 224.687 144.718 224.67 144.881C224.653 145.045 224.596 145.202 224.504 145.339C224.412 145.475 224.288 145.587 224.142 145.664C223.997 145.741 223.835 145.781 223.67 145.78L163.14 148.52C162.754 148.516 162.378 148.393 162.065 148.168C161.752 147.942 161.516 147.625 161.39 147.26L149.77 110.38C149.708 110.229 149.684 110.064 149.7 109.901C149.716 109.738 149.772 109.582 149.863 109.445C149.954 109.309 150.077 109.197 150.221 109.12C150.365 109.042 150.526 109.001 150.69 109Z" fill="white"/>
<path opacity="0.5" d="M213 107.52L224.62 144.39C224.685 144.543 224.71 144.709 224.695 144.874C224.679 145.04 224.623 145.198 224.53 145.336C224.438 145.474 224.313 145.587 224.166 145.664C224.02 145.742 223.856 145.782 223.69 145.78L211.24 106.25C211.628 106.255 212.006 106.38 212.32 106.607C212.635 106.834 212.873 107.153 213 107.52V107.52Z" fill="#3FAE3E"/>
<path opacity="0.5" d="M226.94 145.63L249.31 144.63C249.578 144.612 249.848 144.649 250.101 144.738C250.355 144.827 250.589 144.966 250.787 145.147C250.986 145.328 251.147 145.548 251.259 145.792C251.371 146.037 251.433 146.301 251.44 146.57L225 147.76C224.982 147.492 225.019 147.222 225.108 146.969C225.197 146.715 225.336 146.481 225.517 146.283C225.698 146.084 225.918 145.923 226.162 145.811C226.407 145.699 226.671 145.638 226.94 145.63Z" fill="#3FAE3E"/>
<path d="M255.2 142.28L249.48 143.11L255.34 151.26C255.34 151.26 264.65 149.77 263.57 145.64L261.57 143.98C260.686 143.267 259.663 142.747 258.565 142.454C257.468 142.161 256.322 142.102 255.2 142.28Z" fill="#FF8B7B"/>
<path d="M242.48 145.55L249.65 151.8L255.34 151.26L249.48 143.11L242.48 145.55Z" fill="#FF8B7B"/>
</svg>
