


<svg xmlns="http://www.w3.org/2000/svg" width="28pt" height="38pt" viewBox="0 0 24 36"><defs><style>.cls-1{fill:#fd7d7e;}.cls-2{fill:#fff;}</style></defs><g id="Layer_2" data-name="Layer 2"><g id="Capa_1" data-name="Capa 1"><path class="cls-1" d="M12,0A12,12,0,0,0,0,12C0,22.48,12,36,12,36S24,22.25,24,12A12,12,0,0,0,12,0Zm0,19.67a7.9,7.9,0,1,1,7.9-7.9A7.9,7.9,0,0,1,12,19.67Z"/><path class="cls-2" d="M12,3.87a7.9,7.9,0,1,0,7.9,7.9A7.89,7.89,0,0,0,12,3.87Zm3.78,8.46a.5.5,0,0,1-.4.3H10.91v3.45a.47.47,0,0,1-.94,0V8.56a.9.9,0,0,1-.39-.7v0a.86.86,0,1,1,1.72,0,1,1,0,0,1-.11.41h4.16a.42.42,0,0,1,.43.25.43.43,0,0,1-.08.51L14.41,10.4l1.3,1.41A.49.49,0,0,1,15.78,12.33Z"/><path class="cls-1" d="M15.71,11.81l-1.3-1.41L15.69,9a.43.43,0,0,0,.08-.51.42.42,0,0,0-.43-.25H11.18a1,1,0,0,0,.11-.41.86.86,0,1,0-1.72,0v0a.9.9,0,0,0,.39.7v7.52a.47.47,0,0,0,.94,0V12.63h4.47a.5.5,0,0,0,.4-.3A.49.49,0,0,0,15.71,11.81Zm-4.8-.12V9.2h3.37l-.85.9a.5.5,0,0,0,0,.65l.86.94Z"/></g></g></svg>



