<svg width="14" height="14" viewBox="0 0 14 14" fill="none" xmlns="http://www.w3.org/2000/svg">
<path d="M9.91662 1.74997C10.0698 1.59676 10.2517 1.47523 10.4519 1.39232C10.6521 1.3094 10.8666 1.26672 11.0833 1.26672C11.3 1.26672 11.5145 1.3094 11.7147 1.39232C11.9149 1.47523 12.0967 1.59676 12.25 1.74997C12.4032 1.90318 12.5247 2.08507 12.6076 2.28524C12.6905 2.48542 12.7332 2.69997 12.7332 2.91664C12.7332 3.13331 12.6905 3.34786 12.6076 3.54804C12.5247 3.74821 12.4032 3.9301 12.25 4.08331L4.37496 11.9583L1.16663 12.8333L2.04163 9.62497L9.91662 1.74997Z" stroke="black" stroke-width="1.5" stroke-linecap="round" stroke-linejoin="round"/>
</svg>
