<svg width="22" height="22" viewBox="0 0 22 22" fill="none" xmlns="http://www.w3.org/2000/svg">
<path d="M10.13 18.3087L10.13 20.1296C10.13 20.6098 10.52 21 11 21L16.47 21C16.95 21 17.35 20.6098 17.35 20.1296L17.35 15.5273L18.3 15.5273C19.8 15.5273 21 14.3067 21 12.8259C21 11.3352 19.79 10.1246 18.3 10.1246L17.36 10.1246L17.36 5.52226C17.36 5.04202 16.96 4.64182 16.48 4.64182L11.88 4.64182L11.88 3.70135C11.88 2.21061 10.67 1 9.18 0.999999C7.69 0.999999 6.48 2.22061 6.48 3.70135L6.48 4.64182L1.89 4.64182C1.41 4.64182 1.01 5.04202 1.01 5.52226L1.01 11.005C1.01 11.4852 1.41 11.8854 1.89 11.8854L3.7 11.8854C4.22 11.8854 4.64 12.3057 4.64 12.8259C4.64 13.3562 4.22 13.7764 3.7 13.7764L1.88 13.7764C1.4 13.7764 0.999999 14.1766 0.999999 14.6468L0.999999 20.1296C0.999999 20.6098 1.4 21 1.88 21L7.35 21C7.83 21 8.22 20.6098 8.22 20.1296L8.22 18.3087C8.22 17.7784 8.65 17.3582 9.17 17.3582C9.7 17.3582 10.13 17.7884 10.13 18.3087ZM9.18 15.6073C7.69 15.6073 6.48 16.8279 6.48 18.3087L6.48 19.2491L2.76 19.2491L2.76 15.5273L3.7 15.5273C5.19 15.5273 6.4 14.3067 6.4 12.8259C6.4 11.3352 5.19 10.1246 3.7 10.1246L2.75 10.1246L2.75 6.4027L7.35 6.4027C7.83 6.4027 8.22 6.0125 8.22 5.53226L8.22 3.70135C8.22 3.17109 8.65 2.75087 9.17 2.75087C9.69 2.75087 10.12 3.17109 10.12 3.70135L10.12 5.52226C10.12 6.0025 10.51 6.39269 10.99 6.39269L15.59 6.3927L15.59 11.005C15.59 11.4852 15.99 11.8854 16.46 11.8854L18.3 11.8854C18.83 11.8854 19.25 12.3057 19.25 12.8259C19.25 13.3562 18.83 13.7764 18.3 13.7764L16.48 13.7764C16 13.7764 15.61 14.1766 15.61 14.6468L15.61 19.2491L11.88 19.2491L11.88 18.3087C11.87 16.8179 10.67 15.6073 9.18 15.6073Z" fill="black"/>
</svg>
