<svg width="22" height="22" viewBox="0 0 22 22" fill="none" xmlns="http://www.w3.org/2000/svg">
<path d="M12.1916 11.2016C12.6807 10.7783 13.073 10.2546 13.3419 9.66625C13.6108 9.07788 13.7499 8.43855 13.7499 7.79165C13.7499 6.57607 13.267 5.41028 12.4075 4.55074C11.5479 3.6912 10.3822 3.20831 9.16659 3.20831C7.95101 3.20831 6.78522 3.6912 5.92568 4.55074C5.06614 5.41028 4.58325 6.57607 4.58325 7.79165C4.58325 8.43855 4.7224 9.07788 4.99128 9.66625C5.26016 10.2546 5.65247 10.7783 6.14159 11.2016C4.85838 11.7827 3.76968 12.721 3.00565 13.9045C2.24162 15.0879 1.8346 16.4663 1.83325 17.875C1.83325 18.1181 1.92983 18.3513 2.10174 18.5232C2.27365 18.6951 2.5068 18.7916 2.74992 18.7916C2.99303 18.7916 3.22619 18.6951 3.3981 18.5232C3.57001 18.3513 3.66659 18.1181 3.66659 17.875C3.66659 16.4163 4.24605 15.0173 5.2775 13.9859C6.30895 12.9544 7.70789 12.375 9.16659 12.375C10.6253 12.375 12.0242 12.9544 13.0557 13.9859C14.0871 15.0173 14.6666 16.4163 14.6666 17.875C14.6666 18.1181 14.7632 18.3513 14.9351 18.5232C15.107 18.6951 15.3401 18.7916 15.5833 18.7916C15.8264 18.7916 16.0595 18.6951 16.2314 18.5232C16.4033 18.3513 16.4999 18.1181 16.4999 17.875C16.4986 16.4663 16.0915 15.0879 15.3275 13.9045C14.5635 12.721 13.4748 11.7827 12.1916 11.2016ZM9.16659 10.5416C8.62269 10.5416 8.091 10.3804 7.63877 10.0782C7.18653 9.77601 6.83406 9.34652 6.62592 8.84403C6.41778 8.34153 6.36332 7.7886 6.46943 7.25515C6.57554 6.7217 6.83745 6.2317 7.22204 5.8471C7.60664 5.46251 8.09664 5.2006 8.63009 5.09449C9.16354 4.98838 9.71647 5.04284 10.219 5.25098C10.7215 5.45912 11.151 5.81159 11.4531 6.26383C11.7553 6.71606 11.9166 7.24775 11.9166 7.79165C11.9166 8.52099 11.6269 9.22047 11.1111 9.73619C10.5954 10.2519 9.89593 10.5416 9.16659 10.5416ZM19.9008 8.36915C19.8155 8.28323 19.7142 8.21503 19.6024 8.1685C19.4907 8.12196 19.3709 8.098 19.2499 8.098C19.1289 8.098 19.0091 8.12196 18.8974 8.1685C18.7857 8.21503 18.6843 8.28323 18.5991 8.36915L16.7658 10.2025L16.1974 9.62498C16.1122 9.53906 16.0108 9.47087 15.8991 9.42433C15.7874 9.37779 15.6676 9.35383 15.5466 9.35383C15.4256 9.35383 15.3058 9.37779 15.1941 9.42433C15.0824 9.47087 14.981 9.53906 14.8958 9.62498C14.725 9.79673 14.6292 10.0291 14.6292 10.2712C14.6292 10.5134 14.725 10.7457 14.8958 10.9175L16.1241 12.1458C16.2958 12.3165 16.5282 12.4124 16.7703 12.4124C17.0125 12.4124 17.2448 12.3165 17.4166 12.1458L19.8641 9.69831C19.9566 9.61519 20.0313 9.5141 20.0835 9.4012C20.1358 9.2883 20.1645 9.16595 20.1679 9.04161C20.1713 8.91726 20.1494 8.79351 20.1035 8.6779C20.0576 8.56229 19.9886 8.45724 19.9008 8.36915Z" fill="black"/>
</svg>
