<svg width="68" height="68" viewBox="0 0 68 68" fill="none" xmlns="http://www.w3.org/2000/svg">
<path d="M38.2261 45.5786C37.4482 44.8006 36.1869 44.8006 35.4087 45.5786L34 46.9873L32.5913 45.5786C31.8134 44.8006 30.5519 44.8006 29.7739 45.5786C28.9959 46.3566 28.9959 47.6179 29.7739 48.3959L31.1826 49.8047L29.7739 51.2133C28.9959 51.9913 28.9959 53.2526 29.7739 54.0306C30.5518 54.8085 31.8131 54.8088 32.5913 54.0306L34 52.622L35.4087 54.0308C36.1866 54.8088 37.4481 54.8088 38.2261 54.0308C39.0041 53.2528 39.0041 51.9914 38.2261 51.2134L36.8174 49.8047L38.2261 48.3961C39.0041 47.6181 39.0041 46.3566 38.2261 45.5786ZM24.2808 45.5786C23.5028 44.8006 22.2414 44.8006 21.4634 45.5786L20.0547 46.9873L18.6459 45.5786C17.8681 44.8006 16.6066 44.8006 15.8286 45.5786C15.0506 46.3566 15.0506 47.6179 15.8286 48.3959L17.2373 49.8047L15.8286 51.2133C15.0506 51.9913 15.0506 53.2526 15.8286 54.0306C16.6065 54.8085 17.8678 54.8088 18.6459 54.0306L20.0547 52.622L21.4634 54.0308C22.2413 54.8088 23.5028 54.8088 24.2808 54.0308C25.0588 53.2528 25.0588 51.9914 24.2808 51.2134L22.872 49.8047L24.2808 48.3961C25.0588 47.6181 25.0588 46.3566 24.2808 45.5786ZM24.2808 31.6333C23.5028 30.8553 22.2414 30.8553 21.4634 31.6333L20.0547 33.042L18.6459 31.6333C17.8681 30.8553 16.6066 30.8553 15.8286 31.6333C15.0506 32.4113 15.0506 33.6726 15.8286 34.4506L17.2373 35.8594L15.8286 37.268C15.0506 38.046 15.0506 39.3073 15.8286 40.0853C16.6065 40.8632 17.8678 40.8635 18.6459 40.0853L20.0547 38.6767L21.4634 40.0855C22.2413 40.8635 23.5028 40.8635 24.2808 40.0855C25.0588 39.3075 25.0588 38.0461 24.2808 37.2681L22.872 35.8594L24.2808 34.4508C25.0588 33.6728 25.0588 32.4113 24.2808 31.6333ZM38.2261 31.6333C37.4482 30.8553 36.1869 30.8553 35.4087 31.6333L34 33.042L32.5913 31.6333C31.8134 30.8553 30.5519 30.8553 29.7739 31.6333C28.9959 32.4113 28.9959 33.6726 29.7739 34.4506L31.1826 35.8594L29.7739 37.268C28.9959 38.046 28.9959 39.3073 29.7739 40.0853C30.5518 40.8632 31.8131 40.8635 32.5913 40.0853L34 38.6767L35.4087 40.0855C36.1866 40.8635 37.4481 40.8635 38.2261 40.0855C39.0041 39.3075 39.0041 38.0461 38.2261 37.2681L36.8174 35.8594L38.2261 34.4508C39.0041 33.6728 39.0041 32.4113 38.2261 31.6333ZM24.2808 17.688C23.5028 16.91 22.2414 16.91 21.4634 17.688L20.0547 19.0967L18.6459 17.688C17.8681 16.91 16.6066 16.91 15.8286 17.688C15.0506 18.466 15.0506 19.7273 15.8286 20.5053L17.2373 21.9141L15.8286 23.3227C15.0506 24.1007 15.0506 25.362 15.8286 26.14C16.6065 26.9179 17.8678 26.9182 18.6459 26.14L20.0547 24.7314L21.4634 26.1402C22.2413 26.9182 23.5028 26.9182 24.2808 26.1402C25.0588 25.3621 25.0588 24.1008 24.2808 23.3228L22.872 21.9141L24.2808 20.5055C25.0588 19.7274 25.0588 18.466 24.2808 17.688ZM57.9062 3.98438H47.9453V1.99219C47.9453 0.891969 47.0533 0 45.9531 0C44.8529 0 43.9609 0.891969 43.9609 1.99219V3.98438H35.9922V1.99219C35.9922 0.891969 35.1002 0 34 0C32.8998 0 32.0078 0.891969 32.0078 1.99219V3.98438H24.0391V1.99219C24.0391 0.891969 23.1471 0 22.0469 0C20.9467 0 20.0547 0.891969 20.0547 1.99219V3.98438H10.0938C8.99353 3.98438 8.10156 4.87634 8.10156 5.97656V66.0078C8.10156 67.108 8.99353 68 10.0938 68H57.9062C59.0065 68 59.8984 67.108 59.8984 66.0078V5.97656C59.8984 4.87634 59.0065 3.98438 57.9062 3.98438ZM38.2261 17.688C37.4482 16.91 36.1869 16.91 35.4087 17.688L34 19.0967L32.5913 17.688C31.8134 16.91 30.5519 16.91 29.7739 17.688C28.9959 18.466 28.9959 19.7273 29.7739 20.5053L31.1826 21.9141L29.7739 23.3227C28.9959 24.1007 28.9959 25.362 29.7739 26.14C30.5518 26.9179 31.8131 26.9182 32.5913 26.14L34 24.7314L35.4087 26.1402C36.1866 26.9182 37.4481 26.9182 38.2261 26.1402C39.0041 25.3621 39.0041 24.1008 38.2261 23.3228L36.8174 21.9141L38.2261 20.5055C39.0041 19.7274 39.0041 18.466 38.2261 17.688ZM46.5366 17.688C45.7587 16.91 44.4972 16.91 43.7192 17.688C42.9412 18.466 42.9412 19.7273 43.7192 20.5053L45.128 21.9141L43.7192 23.3227C42.9412 24.1007 42.9412 25.362 43.7192 26.14C44.4971 26.9179 45.7584 26.9182 46.5366 26.14L47.9453 24.7314L49.3541 26.1402C50.1319 26.9182 51.3934 26.9182 52.1714 26.1402C52.9494 25.3621 52.9494 24.1008 52.1714 23.3228L50.7627 21.9141L52.1714 20.5055C52.9494 19.7274 52.9494 18.4661 52.1714 17.6881C51.3934 16.9101 50.1321 16.9101 49.3541 17.6881L47.9453 19.0967L46.5366 17.688ZM52.1714 45.5786C51.3934 44.8006 50.1321 44.8006 49.3541 45.5786L47.9453 46.9873L46.5366 45.5786C45.7587 44.8006 44.4972 44.8006 43.7192 45.5786C42.9412 46.3566 42.9412 47.6179 43.7192 48.3959L45.128 49.8047L43.7192 51.2133C42.9412 51.9913 42.9412 53.2526 43.7192 54.0306C44.4971 54.8085 45.7584 54.8088 46.5366 54.0306L47.9453 52.622L49.3541 54.0308C50.1319 54.8088 51.3934 54.8088 52.1714 54.0308C52.9494 53.2528 52.9494 51.9914 52.1714 51.2134L50.7627 49.8047L52.1714 48.3961C52.9494 47.6181 52.9494 46.3566 52.1714 45.5786ZM52.1714 31.6333C51.3934 30.8553 50.1321 30.8553 49.3541 31.6333L47.9453 33.042L46.5366 31.6333C45.7587 30.8553 44.4972 30.8553 43.7192 31.6333C42.9412 32.4113 42.9412 33.6726 43.7192 34.4506L45.128 35.8594L43.7192 37.268C42.9412 38.046 42.9412 39.3073 43.7192 40.0853C44.4971 40.8632 45.7584 40.8635 46.5366 40.0853L47.9453 38.6767L49.3541 40.0855C50.1319 40.8635 51.3934 40.8635 52.1714 40.0855C52.9494 39.3075 52.9494 38.0461 52.1714 37.2681L50.7627 35.8594L52.1714 34.4508C52.9494 33.6728 52.9494 32.4113 52.1714 31.6333Z" fill="url(#paint0_linear)"/>
<path d="M37.981 45.5777C37.2031 44.7996 35.9418 44.7996 35.1637 45.5777L33.7549 46.9864L32.3462 45.5777C31.5683 44.7996 30.3068 44.7996 29.5288 45.5777C28.7508 46.3557 28.7508 47.617 29.5288 48.395L30.9376 49.8037L29.5288 51.2124C28.7508 51.9904 28.7508 53.2517 29.5288 54.0297C30.3067 54.8076 31.568 54.8079 32.3462 54.0297L33.7549 52.6211L35.1637 54.0298C35.9415 54.8079 37.203 54.8079 37.981 54.0298C38.759 53.2518 38.759 51.9905 37.981 51.2125L36.5723 49.8037L37.981 48.3951C38.759 47.6171 38.759 46.3557 37.981 45.5777ZM24.0357 45.5777C23.2577 44.7996 21.9964 44.7996 21.2183 45.5777L19.8096 46.9864L18.4009 45.5777C17.623 44.7996 16.3615 44.7996 15.5835 45.5777C14.8055 46.3557 14.8055 47.617 15.5835 48.395L16.9923 49.8037L15.5835 51.2124C14.8055 51.9904 14.8055 53.2517 15.5835 54.0297C16.3614 54.8076 17.6227 54.8079 18.4009 54.0297L19.8096 52.6211L21.2183 54.0298C21.9962 54.8079 23.2577 54.8079 24.0357 54.0298C24.8137 53.2518 24.8137 51.9905 24.0357 51.2125L22.627 49.8037L24.0357 48.3951C24.8137 47.6171 24.8137 46.3557 24.0357 45.5777ZM24.0357 31.6323C23.2577 30.8543 21.9964 30.8543 21.2183 31.6323L19.8096 33.0411L18.4009 31.6323C17.623 30.8543 16.3615 30.8543 15.5835 31.6323C14.8055 32.4104 14.8055 33.6717 15.5835 34.4497L16.9923 35.8584L15.5835 37.267C14.8055 38.0451 14.8055 39.3064 15.5835 40.0844C16.3614 40.8623 17.6227 40.8625 18.4009 40.0844L19.8096 38.6758L21.2183 40.0845C21.9962 40.8625 23.2577 40.8625 24.0357 40.0845C24.8137 39.3065 24.8137 38.0452 24.0357 37.2672L22.627 35.8584L24.0357 34.4498C24.8137 33.6718 24.8137 32.4104 24.0357 31.6323ZM37.981 31.6323C37.2031 30.8543 35.9418 30.8543 35.1637 31.6323L33.7549 33.0411L32.3462 31.6323C31.5683 30.8543 30.3068 30.8543 29.5288 31.6323C28.7508 32.4104 28.7508 33.6717 29.5288 34.4497L30.9376 35.8584L29.5288 37.267C28.7508 38.0451 28.7508 39.3064 29.5288 40.0844C30.3067 40.8623 31.568 40.8625 32.3462 40.0844L33.7549 38.6758L35.1637 40.0845C35.9415 40.8625 37.203 40.8625 37.981 40.0845C38.759 39.3065 38.759 38.0452 37.981 37.2672L36.5723 35.8584L37.981 34.4498C38.759 33.6718 38.759 32.4104 37.981 31.6323ZM24.0357 17.687C23.2577 16.909 21.9964 16.909 21.2183 17.687L19.8096 19.0958L18.4009 17.687C17.623 16.909 16.3615 16.909 15.5835 17.687C14.8055 18.465 14.8055 19.7264 15.5835 20.5044L16.9923 21.9131L15.5835 23.3217C14.8055 24.0997 14.8055 25.3611 15.5835 26.1391C16.3614 26.917 17.6227 26.9172 18.4009 26.1391L19.8096 24.7305L21.2183 26.1392C21.9962 26.9172 23.2577 26.9172 24.0357 26.1392C24.8137 25.3612 24.8137 24.0999 24.0357 23.3219L22.627 21.9131L24.0357 20.5045C24.8137 19.7265 24.8137 18.465 24.0357 17.687ZM37.981 17.687C37.2031 16.909 35.9418 16.909 35.1637 17.687L33.7549 19.0958L32.3462 17.687C31.5683 16.909 30.3068 16.909 29.5288 17.687C28.7508 18.465 28.7508 19.7264 29.5288 20.5044L30.9376 21.9131L29.5288 23.3217C28.7508 24.0997 28.7508 25.3611 29.5288 26.1391C30.3067 26.917 31.568 26.9172 32.3462 26.1391L33.7549 24.7305L35.1637 26.1392C35.9415 26.9172 37.203 26.9172 37.981 26.1392C38.759 25.3612 38.759 24.0999 37.981 23.3219L36.5723 21.9131L37.981 20.5045C38.759 19.7265 38.759 18.465 37.981 17.687ZM46.2915 17.687C45.5136 16.909 44.2522 16.909 43.4741 17.687C42.6961 18.465 42.6961 19.7264 43.4741 20.5044L44.8829 21.9131L43.4741 23.3217C42.6961 24.0997 42.6961 25.3611 43.4741 26.1391C44.252 26.917 45.5133 26.9172 46.2915 26.1391L47.7002 24.7305L49.109 26.1392C49.8869 26.9172 51.1483 26.9172 51.9263 26.1392C52.7043 25.3612 52.7043 24.0999 51.9263 23.3219L50.5176 21.9131L51.9263 20.5045C52.7043 19.7265 52.7043 18.4652 51.9263 17.6872C51.1483 16.9091 49.887 16.9091 49.109 17.6872L47.7002 19.0958L46.2915 17.687ZM51.9263 45.5777C51.1483 44.7996 49.887 44.7996 49.109 45.5777L47.7002 46.9864L46.2915 45.5777C45.5136 44.7996 44.2522 44.7996 43.4741 45.5777C42.6961 46.3557 42.6961 47.617 43.4741 48.395L44.8829 49.8037L43.4741 51.2124C42.6961 51.9904 42.6961 53.2517 43.4741 54.0297C44.252 54.8076 45.5133 54.8079 46.2915 54.0297L47.7002 52.6211L49.109 54.0298C49.8869 54.8079 51.1483 54.8079 51.9263 54.0298C52.7043 53.2518 52.7043 51.9905 51.9263 51.2125L50.5176 49.8037L51.9263 48.3951C52.7043 47.6171 52.7043 46.3557 51.9263 45.5777ZM51.9263 31.6323C51.1483 30.8543 49.887 30.8543 49.109 31.6323L47.7002 33.0411L46.2915 31.6323C45.5136 30.8543 44.2522 30.8543 43.4741 31.6323C42.6961 32.4104 42.6961 33.6717 43.4741 34.4497L44.8829 35.8584L43.4741 37.267C42.6961 38.0451 42.6961 39.3064 43.4741 40.0844C44.252 40.8623 45.5133 40.8625 46.2915 40.0844L47.7002 38.6758L49.109 40.0845C49.8869 40.8625 51.1483 40.8625 51.9263 40.0845C52.7043 39.3065 52.7043 38.0452 51.9263 37.2672L50.5176 35.8584L51.9263 34.4498C52.7043 33.6718 52.7043 32.4104 51.9263 31.6323Z" fill="white"/>
<defs>
<linearGradient id="paint0_linear" x1="34" y1="68" x2="34" y2="0" gradientUnits="userSpaceOnUse">
<stop stop-color="#E65B30"/>
<stop offset="1" stop-color="#FFBCA7"/>
</linearGradient>
</defs>
</svg>
