<svg width="65" height="67" viewBox="0 0 65 67" fill="none" xmlns="http://www.w3.org/2000/svg">
<path d="M56.5312 11.5156C56.5312 9.2029 54.6565 7.32812 52.3438 7.32812H51.2969V10.4688C51.2969 11.6251 50.3595 12.5625 49.2031 12.5625H47.1094C48.2657 12.5625 49.2031 11.6251 49.2031 10.4688V4.1875C49.2031 3.03111 48.2657 2.09375 47.1094 2.09375C45.953 2.09375 45.0156 3.03111 45.0156 4.1875V7.32812H39.7812V10.4688C39.7812 11.6251 38.8438 12.5625 37.6875 12.5625H35.5938C36.7501 12.5625 37.6875 11.6251 37.6875 10.4688V4.1875C37.6875 3.03111 36.7501 2.09375 35.5938 2.09375C34.4374 2.09375 33.5 3.03111 33.5 4.1875V7.32812H27.2188V10.4688C27.2188 11.6251 26.2813 12.5625 25.125 12.5625H23.0312C24.1876 12.5625 25.125 11.6251 25.125 10.4688V4.1875C25.125 3.03111 24.1876 2.09375 23.0312 2.09375C21.8749 2.09375 20.9375 3.03111 20.9375 4.1875V7.32812H15.7031V10.4688C15.7031 11.6251 14.7657 12.5625 13.6094 12.5625H11.5156C12.672 12.5625 13.6094 11.6251 13.6094 10.4688V4.1875C13.6094 3.03111 12.672 2.09375 11.5156 2.09375C10.3593 2.09375 9.42188 3.03111 9.42188 4.1875V7.32812H6.28125C3.96853 7.32812 2.09375 9.2029 2.09375 11.5156V17.7969H56.5312V11.5156Z" fill="url(#paint0_linear)"/>
<path d="M53.3906 41.875C47.0307 41.875 41.875 47.0307 41.875 53.3906C41.875 59.7505 47.0307 64.9062 53.3906 64.9062C59.7505 64.9062 64.9062 59.7505 64.9062 53.3906C64.9062 47.0307 59.7505 41.875 53.3906 41.875ZM53.3906 55.4844C53.1226 55.4844 52.8684 55.4294 52.6328 55.3376L48.8105 58.396L47.502 56.7603L51.3281 53.7C51.3128 53.5983 51.2969 53.4966 51.2969 53.3906C51.2969 52.6175 51.7206 51.95 52.3438 51.5873V45.0156H54.4375V51.5873C55.0607 51.95 55.4844 52.6175 55.4844 53.3906C55.4844 54.547 54.547 55.4844 53.3906 55.4844Z" fill="url(#paint1_linear)"/>
<path d="M6.28125 58.625H40.8277C40.1554 57.0133 39.7812 55.246 39.7812 53.3906C39.7812 47.7303 43.2384 42.8796 48.155 40.8281H42.9219V34.5469H49.2031V40.4446C50.5232 40.0178 51.9286 39.7812 53.3906 39.7812C54.4735 39.7812 55.5214 39.921 56.5312 40.16V19.8906H2.09375V54.4375C2.09375 56.7511 3.96764 58.625 6.28125 58.625ZM42.9219 23.0312H49.2031V29.3125H42.9219V23.0312ZM31.4062 23.0312H37.6875V29.3125H31.4062V23.0312ZM31.4062 34.5469H37.6875V40.8281H31.4062V34.5469ZM31.4062 46.0625H37.6875V52.3438H31.4062V46.0625ZM19.8906 23.0312H26.1719V29.3125H19.8906V23.0312ZM19.8906 34.5469H26.1719V40.8281H19.8906V34.5469ZM19.8906 46.0625H26.1719V52.3438H19.8906V46.0625ZM8.375 23.0312H14.6562V29.3125H8.375V23.0312ZM8.375 34.5469H14.6562V40.8281H8.375V34.5469ZM8.375 46.0625H14.6562V52.3438H8.375V46.0625Z" fill="url(#paint2_linear)"/>
<defs>
<linearGradient id="paint0_linear" x1="29.3125" y1="2.09375" x2="29.3125" y2="17.7969" gradientUnits="userSpaceOnUse">
<stop stop-color="#8CFEAC"/>
<stop offset="1" stop-color="#82F6A3"/>
</linearGradient>
<linearGradient id="paint1_linear" x1="53.3906" y1="41.875" x2="53.3906" y2="64.9062" gradientUnits="userSpaceOnUse">
<stop stop-color="#8CFEAC"/>
<stop offset="1" stop-color="#44C468"/>
</linearGradient>
<linearGradient id="paint2_linear" x1="29.3125" y1="19.8906" x2="29.3125" y2="58.625" gradientUnits="userSpaceOnUse">
<stop stop-color="#8CFEAC"/>
<stop offset="1" stop-color="#44C468"/>
</linearGradient>
</defs>
</svg>
