<svg width="22" height="22" viewBox="0 0 22 22" fill="none" xmlns="http://www.w3.org/2000/svg">
<path d="M13.5758 11.2566C14.156 10.6335 14.4829 9.81636 14.4924 8.96498C14.4924 8.046 14.1274 7.16467 13.4775 6.51485C12.8277 5.86504 11.9464 5.49998 11.0274 5.49998C10.1084 5.49998 9.22711 5.86504 8.57729 6.51485C7.92748 7.16467 7.56242 8.046 7.56242 8.96498C7.57198 9.81636 7.89886 10.6335 8.47909 11.2566C7.67119 11.6589 6.97595 12.2558 6.45592 12.9934C5.93589 13.731 5.60738 14.5864 5.49992 15.4825C5.47318 15.7256 5.54411 15.9694 5.6971 16.1602C5.8501 16.351 6.07264 16.4732 6.31575 16.5C6.55887 16.5267 6.80265 16.4558 6.99347 16.3028C7.18428 16.1498 7.30651 15.9273 7.33325 15.6841C7.44264 14.796 7.87303 13.9786 8.54333 13.3857C9.21364 12.7929 10.0776 12.4657 10.9724 12.4657C11.8673 12.4657 12.7312 12.7929 13.4015 13.3857C14.0718 13.9786 14.5022 14.796 14.6116 15.6841C14.6371 15.9192 14.7524 16.1353 14.9335 16.2873C15.1145 16.4394 15.3473 16.5155 15.5833 16.5H15.6841C15.9244 16.4723 16.144 16.3508 16.2951 16.162C16.4462 15.9731 16.5165 15.7321 16.4908 15.4916C16.3913 14.6003 16.0731 13.7473 15.5646 13.0084C15.056 12.2696 14.3729 11.6679 13.5758 11.2566ZM10.9999 10.5966C10.6772 10.5966 10.3617 10.501 10.0934 10.3217C9.82509 10.1424 9.61595 9.88754 9.49246 9.58939C9.36896 9.29124 9.33665 8.96317 9.3996 8.64666C9.46256 8.33014 9.61796 8.03941 9.84616 7.81122C10.0743 7.58302 10.3651 7.42762 10.6816 7.36467C10.9981 7.30171 11.3262 7.33402 11.6243 7.45752C11.9225 7.58101 12.1773 7.79015 12.3566 8.05847C12.5359 8.3268 12.6316 8.64227 12.6316 8.96498C12.6316 9.39772 12.4597 9.81275 12.1537 10.1187C11.8477 10.4247 11.4327 10.5966 10.9999 10.5966ZM17.4166 1.83331H4.58325C3.85391 1.83331 3.15443 2.12304 2.63871 2.63877C2.12298 3.15449 1.83325 3.85397 1.83325 4.58331V17.4166C1.83325 18.146 2.12298 18.8455 2.63871 19.3612C3.15443 19.8769 3.85391 20.1666 4.58325 20.1666H17.4166C18.1459 20.1666 18.8454 19.8769 19.3611 19.3612C19.8769 18.8455 20.1666 18.146 20.1666 17.4166V4.58331C20.1666 3.85397 19.8769 3.15449 19.3611 2.63877C18.8454 2.12304 18.1459 1.83331 17.4166 1.83331ZM18.3333 17.4166C18.3333 17.6598 18.2367 17.8929 18.0648 18.0648C17.8929 18.2367 17.6597 18.3333 17.4166 18.3333H4.58325C4.34014 18.3333 4.10698 18.2367 3.93507 18.0648C3.76316 17.8929 3.66659 17.6598 3.66659 17.4166V4.58331C3.66659 4.3402 3.76316 4.10704 3.93507 3.93513C4.10698 3.76322 4.34014 3.66665 4.58325 3.66665H17.4166C17.6597 3.66665 17.8929 3.76322 18.0648 3.93513C18.2367 4.10704 18.3333 4.3402 18.3333 4.58331V17.4166Z" fill="black"/>
</svg>
