<svg width="68" height="68" viewBox="0 0 68 68" fill="none" xmlns="http://www.w3.org/2000/svg">
<path d="M34 0C15.2513 0 0 15.2513 0 34C0 52.7487 15.2513 68 34 68C52.7487 68 68 52.7487 68 34C68 15.2513 52.7487 0 34 0Z" fill="url(#paint0_linear)"/>
<path d="M45.2992 40.9832L35.8181 33.8724V19.3876C35.8181 17.9312 34.6408 16.7539 33.1844 16.7539C31.728 16.7539 30.5507 17.9312 30.5507 19.3876V35.1893C30.5507 36.0189 30.9405 36.8012 31.6042 37.2963L42.1386 45.1972C42.6126 45.5527 43.1658 45.7239 43.7162 45.7239C44.5194 45.7239 45.3095 45.363 45.8258 44.6678C46.7003 43.5062 46.4633 41.8549 45.2992 40.9832Z" fill="white"/>
<defs>
<linearGradient id="paint0_linear" x1="34" y1="0" x2="34" y2="68" gradientUnits="userSpaceOnUse">
<stop stop-color="#E7A3E0"/>
<stop offset="1" stop-color="#CF39C0"/>
</linearGradient>
</defs>
</svg>
