<svg width="68" height="90" viewBox="0 0 68 90" fill="none" xmlns="http://www.w3.org/2000/svg">
<rect x="32.4354" y="23.0898" width="3.29412" height="10.7059" fill="#F9DF99"/>
<rect x="24.9412" y="23.0898" width="3.29412" height="18.2825" transform="rotate(-90 24.9412 23.0898)" fill="#F9DF99"/>
<path d="M34 27.207C18.5599 27.207 6 39.7669 6 55.207C6 70.6472 18.5599 83.207 34 83.207C49.4401 83.207 62 70.6472 62 55.207C62 39.7669 49.4401 27.207 34 27.207Z" fill="url(#paint0_linear)"/>
<path d="M25.8096 60.9574L33.6175 55.1015V43.1728C33.6175 41.9734 34.587 41.0039 35.7864 41.0039C36.9858 41.0039 37.9553 41.9734 37.9553 43.1728V56.186C37.9553 56.8692 37.6343 57.5134 37.0878 57.9212L28.4124 64.4278C28.022 64.7206 27.5665 64.8615 27.1132 64.8615C26.4517 64.8615 25.801 64.5644 25.3759 63.9918C24.6557 63.0352 24.8509 61.6753 25.8096 60.9574Z" fill="white"/>
<defs>
<linearGradient id="paint0_linear" x1="34" y1="27.207" x2="34" y2="83.207" gradientUnits="userSpaceOnUse">
<stop stop-color="#FADF9A"/>
<stop offset="1" stop-color="#C6B524"/>
</linearGradient>
</defs>
</svg>
