<svg width="68" height="68" viewBox="0 0 68 68" fill="none" xmlns="http://www.w3.org/2000/svg">
<path d="M12.24 65.28V2.72004C12.24 1.21772 13.4578 0 14.9599 0H53.0399C54.5421 0 55.76 1.21772 55.76 2.72004V65.28C55.76 66.7821 54.5421 68 53.0399 68H14.9599C13.4578 68 12.24 66.7821 12.24 65.28Z" fill="url(#paint0_linear)"/>
<path d="M37.2 65H30.8C30.3582 65 30 64.8209 30 64.6V63.4C30 63.1791 30.3582 63 30.8 63H37.2C37.6418 63 38 63.1791 38 63.4V64.6C38 64.8209 37.6418 65 37.2 65Z" fill="white"/>
<path d="M39.44 4.47742H28.56C28.0593 4.47742 27.6533 4.07157 27.6533 3.57074C27.6533 3.07006 28.0593 2.66406 28.56 2.66406H39.44C39.9407 2.66406 40.3467 3.06992 40.3467 3.57074C40.3467 4.07157 39.9407 4.47742 39.44 4.47742Z" fill="white"/>
<path d="M43.0666 4.47742C43.5673 4.47742 43.9733 4.07149 43.9733 3.57074C43.9733 3.07 43.5673 2.66406 43.0666 2.66406C42.5658 2.66406 42.1599 3.07 42.1599 3.57074C42.1599 4.07149 42.5658 4.47742 43.0666 4.47742Z" fill="white"/>
<path d="M46.6933 4.47742C47.194 4.47742 47.6 4.07149 47.6 3.57074C47.6 3.07 47.194 2.66406 46.6933 2.66406C46.1926 2.66406 45.7866 3.07 45.7866 3.57074C45.7866 4.07149 46.1926 4.47742 46.6933 4.47742Z" fill="white"/>
<path fill-rule="evenodd" clip-rule="evenodd" d="M34 45C41.732 45 48 38.732 48 31C48 23.268 41.732 17 34 17C26.268 17 20 23.268 20 31C20 38.732 26.268 45 34 45ZM32.8333 32.5641C32.2569 32.1985 31.7407 31.6297 31.3581 30.9327C30.9302 30.1528 30.6944 29.2633 30.6944 28.4282C30.6944 26.2235 32.3275 24.875 34.4375 24.875C36.5515 24.875 38.1806 26.2271 38.1806 28.4282C38.1806 29.2633 37.9448 30.1528 37.5169 30.9327C37.1343 31.6297 36.6181 32.1984 36.0417 32.5641V33.0642H36.5764C38.0506 33.0642 39.25 34.2028 39.25 35.6022V36.6174C39.25 36.8977 39.0106 37.125 38.7153 37.125H30.1597C29.8644 37.125 29.625 36.8977 29.625 36.6174V35.6022C29.625 34.2028 30.8244 33.0642 32.2986 33.0642H32.8333V32.5641Z" fill="white"/>
<defs>
<linearGradient id="paint0_linear" x1="34" y1="0" x2="34" y2="68" gradientUnits="userSpaceOnUse">
<stop stop-color="#7EC2F9"/>
<stop offset="1" stop-color="#1C67A3"/>
</linearGradient>
</defs>
</svg>
