<svg width="67" height="67" viewBox="0 0 67 67" fill="none" xmlns="http://www.w3.org/2000/svg">
<g clip-path="url(#clip0)">
<path d="M62.347 27.7731C60.5325 27.7731 59.0658 29.2434 59.0658 31.0544V57.306C59.0658 59.114 57.5955 60.5873 55.7846 60.5873H9.8443C8.03274 60.5873 6.56307 59.114 6.56307 57.306V11.3658C6.56307 9.55783 8.03274 8.08455 9.8443 8.08455H36.096C37.9105 8.08455 39.3772 6.61427 39.3772 4.80332C39.3772 2.99176 37.9105 1.52148 36.096 1.52148H9.8443C4.41684 1.52148 0 5.93832 0 11.3658V57.306C0 62.7335 4.41684 67.1503 9.8443 67.1503H55.7846C61.212 67.1503 65.6289 62.7335 65.6289 57.306V31.0544C65.6289 29.2398 64.1616 27.7731 62.347 27.7731Z" fill="url(#paint0_linear)"/>
<path d="M19.2574 36.3826C19.0279 36.6121 18.8735 36.9041 18.808 37.219L16.4881 48.8225C16.3799 49.3603 16.5506 49.9149 16.9375 50.3054C17.2494 50.6173 17.6694 50.7843 18.0996 50.7843C18.2041 50.7843 18.3129 50.7747 18.421 50.7519L30.021 48.432C30.3424 48.3659 30.6345 48.2121 30.861 47.982L56.8236 22.0193L45.2237 10.4199L19.2574 36.3826Z" fill="url(#paint1_linear)"/>
<path d="M64.8432 2.39964C61.6442 -0.799879 56.4397 -0.799879 53.2432 2.39964L48.702 6.94085L60.3019 18.5408L64.8432 13.999C66.3921 12.4536 67.2453 10.3927 67.2453 8.20083C67.2453 6.00893 66.3921 3.94802 64.8432 2.39964Z" fill="url(#paint2_linear)"/>
</g>
<defs>
<linearGradient id="paint0_linear" x1="32.8144" y1="1.52148" x2="32.8144" y2="67.1503" gradientUnits="userSpaceOnUse">
<stop stop-color="#7CACF5"/>
<stop offset="1" stop-color="#3276DB"/>
</linearGradient>
<linearGradient id="paint1_linear" x1="36.6399" y1="10.4199" x2="36.6399" y2="50.7843" gradientUnits="userSpaceOnUse">
<stop stop-color="#7CACF5"/>
<stop offset="1" stop-color="#3276DB"/>
</linearGradient>
<linearGradient id="paint2_linear" x1="57.9737" y1="0" x2="57.9737" y2="18.5408" gradientUnits="userSpaceOnUse">
<stop stop-color="#7CACF5"/>
<stop offset="1" stop-color="#3276DB"/>
</linearGradient>
<clipPath id="clip0">
<rect width="67" height="67" fill="white"/>
</clipPath>
</defs>
</svg>
