<svg width="22" height="22" viewBox="0 0 22 22" fill="none" xmlns="http://www.w3.org/2000/svg">
<path d="M11.2751 11.2017C11.7642 10.7783 12.1565 10.2547 12.4254 9.66631C12.6943 9.07794 12.8334 8.43861 12.8334 7.79171C12.8334 6.57613 12.3505 5.41034 11.491 4.5508C10.6314 3.69126 9.46566 3.20837 8.25008 3.20837C7.03451 3.20837 5.86872 3.69126 5.00918 4.5508C4.14963 5.41034 3.66675 6.57613 3.66675 7.79171C3.66674 8.43861 3.8059 9.07794 4.07478 9.66631C4.34366 10.2547 4.73597 10.7783 5.22508 11.2017C3.94188 11.7828 2.85317 12.7211 2.08915 13.9045C1.32512 15.088 0.918097 16.4664 0.916748 17.875C0.916748 18.1182 1.01333 18.3513 1.18523 18.5232C1.35714 18.6951 1.5903 18.7917 1.83341 18.7917C2.07653 18.7917 2.30969 18.6951 2.4816 18.5232C2.6535 18.3513 2.75008 18.1182 2.75008 17.875C2.75008 16.4164 3.32954 15.0174 4.36099 13.986C5.39244 12.9545 6.79139 12.375 8.25008 12.375C9.70877 12.375 11.1077 12.9545 12.1392 13.986C13.1706 15.0174 13.7501 16.4164 13.7501 17.875C13.7501 18.1182 13.8467 18.3513 14.0186 18.5232C14.1905 18.6951 14.4236 18.7917 14.6667 18.7917C14.9099 18.7917 15.143 18.6951 15.3149 18.5232C15.4868 18.3513 15.5834 18.1182 15.5834 17.875C15.5821 16.4664 15.175 15.088 14.411 13.9045C13.647 12.7211 12.5583 11.7828 11.2751 11.2017ZM8.25008 10.5417C7.70618 10.5417 7.1745 10.3804 6.72226 10.0782C6.27003 9.77608 5.91755 9.34658 5.70941 8.84409C5.50127 8.34159 5.44681 7.78866 5.55292 7.25521C5.65903 6.72176 5.92094 6.23176 6.30554 5.84716C6.69013 5.46257 7.18014 5.20066 7.71358 5.09455C8.24703 4.98844 8.79996 5.0429 9.30246 5.25104C9.80496 5.45918 10.2344 5.81165 10.5366 6.26389C10.8388 6.71612 11.0001 7.24781 11.0001 7.79171C11.0001 8.52105 10.7104 9.22053 10.1946 9.73625C9.6789 10.252 8.97943 10.5417 8.25008 10.5417ZM17.1784 10.835C17.7651 10.1744 18.1483 9.35834 18.2819 8.48502C18.4155 7.6117 18.2939 6.71836 17.9317 5.91254C17.5695 5.10672 16.9821 4.42277 16.2402 3.94301C15.4983 3.46325 14.6336 3.20814 13.7501 3.20837C13.507 3.20837 13.2738 3.30495 13.1019 3.47686C12.93 3.64877 12.8334 3.88193 12.8334 4.12504C12.8334 4.36816 12.93 4.60131 13.1019 4.77322C13.2738 4.94513 13.507 5.04171 13.7501 5.04171C14.4794 5.04171 15.1789 5.33144 15.6946 5.84716C16.2104 6.36289 16.5001 7.06236 16.5001 7.79171C16.4988 8.27318 16.3711 8.74587 16.1298 9.16251C15.8885 9.57915 15.542 9.92514 15.1251 10.1659C14.9892 10.2443 14.8757 10.3562 14.7954 10.4911C14.7152 10.6259 14.6709 10.779 14.6667 10.9359C14.6629 11.0915 14.6988 11.2455 14.7709 11.3834C14.8431 11.5214 14.9492 11.6386 15.0792 11.7242L15.4367 11.9625L15.5559 12.0267C16.6609 12.5508 17.593 13.3797 18.2426 14.4158C18.8923 15.452 19.2323 16.6521 19.2226 17.875C19.2226 18.1182 19.3192 18.3513 19.4911 18.5232C19.663 18.6951 19.8961 18.7917 20.1392 18.7917C20.3824 18.7917 20.6155 18.6951 20.7874 18.5232C20.9593 18.3513 21.0559 18.1182 21.0559 17.875C21.0634 16.4684 20.7111 15.0831 20.0324 13.8509C19.3538 12.6188 18.3713 11.5806 17.1784 10.835Z" fill="black"/>
</svg>
