<svg width="70" height="70" viewBox="0 0 70 70" fill="none" xmlns="http://www.w3.org/2000/svg">
<path d="M10.3906 12.3047C11.5232 12.3047 12.4414 11.3865 12.4414 10.2539V4.10156H18.5938C19.7263 4.10156 20.6445 3.18336 20.6445 2.05078C20.6445 0.918203 19.7263 0 18.5938 0H10.3906C9.25805 0 8.33984 0.918203 8.33984 2.05078V10.2539C8.33984 11.3865 9.25805 12.3047 10.3906 12.3047ZM18.5938 65.8984H12.4414V59.7461C12.4414 58.6135 11.5232 57.6953 10.3906 57.6953C9.25805 57.6953 8.33984 58.6135 8.33984 59.7461V67.9492C8.33984 69.0818 9.25805 70 10.3906 70H18.5938C19.7263 70 20.6445 69.0818 20.6445 67.9492C20.6445 66.8166 19.7263 65.8984 18.5938 65.8984ZM59.6094 0H51.4062C50.2737 0 49.3555 0.918203 49.3555 2.05078C49.3555 3.18336 50.2737 4.10156 51.4062 4.10156H57.5586V10.2539C57.5586 11.3865 58.4768 12.3047 59.6094 12.3047C60.742 12.3047 61.6602 11.3865 61.6602 10.2539V2.05078C61.6602 0.918203 60.742 0 59.6094 0ZM59.6094 57.6953C58.4768 57.6953 57.5586 58.6135 57.5586 59.7461V65.8984H51.4062C50.2737 65.8984 49.3555 66.8166 49.3555 67.9492C49.3555 69.0818 50.2737 70 51.4062 70H59.6094C60.742 70 61.6602 69.0818 61.6602 67.9492V59.7461C61.6602 58.6135 60.742 57.6953 59.6094 57.6953ZM23.19 32.6771C24.6571 35.4934 26.6369 37.7912 28.8477 39.2686V41.2891H26.7969C21.1429 41.2891 16.543 45.889 16.543 51.543V55.6445C16.543 56.7771 17.4612 57.6953 18.5938 57.6953H51.4062C52.5388 57.6953 53.457 56.7771 53.457 55.6445V51.543C53.457 45.889 48.8571 41.2891 43.2031 41.2891H41.1523V39.2686C43.3631 37.7911 45.3428 35.4933 46.81 32.6771C48.4515 29.5262 49.3555 25.9327 49.3555 22.5586C49.3555 13.666 43.1078 8.20312 35 8.20312C26.9075 8.20312 20.6445 13.6512 20.6445 22.5586C20.6445 25.9327 21.5485 29.5262 23.19 32.6771Z" fill="url(#paint0_linear)"/>
<path d="M67.9492 20.5078H2.05078C0.918203 20.5078 0 21.426 0 22.5586C0 23.6912 0.918203 24.6094 2.05078 24.6094H67.9492C69.0818 24.6094 70 23.6912 70 22.5586C70 21.426 69.0818 20.5078 67.9492 20.5078Z" fill="url(#paint1_linear)"/>
<defs>
<linearGradient id="paint0_linear" x1="35" y1="70" x2="35" y2="0" gradientUnits="userSpaceOnUse">
<stop stop-color="#3A88FD"/>
<stop offset="1" stop-color="#8DC8FF"/>
</linearGradient>
<linearGradient id="paint1_linear" x1="35" y1="24.6094" x2="35" y2="20.5078" gradientUnits="userSpaceOnUse">
<stop stop-color="#C2C4FF"/>
<stop offset="1" stop-color="#F2F3FF"/>
</linearGradient>
</defs>
</svg>
