<svg width="68" height="68" viewBox="0 0 68 68" fill="none" xmlns="http://www.w3.org/2000/svg">
<path d="M51.6484 41.5755C50.1298 41.2072 48.5998 42.1563 48.24 43.6778C47.8773 45.1992 48.8208 46.7264 50.3423 47.0862C59.1424 49.1744 62.3327 52.2626 62.3327 53.8323C62.3327 57.218 51.0337 62.3321 34 62.3321C16.9691 62.3321 5.66727 57.218 5.66727 53.8323C5.66727 52.2626 8.86042 49.1744 17.6548 47.0862C19.1791 46.7264 20.1198 45.1992 19.7571 43.6778C19.3973 42.1563 17.8673 41.2071 16.3486 41.5755C5.80606 44.0745 0.000671387 48.4264 0.000671387 53.8323C0.000671387 63.1311 17.108 67.9987 34 67.9987C50.8949 67.9987 67.9993 63.1311 67.9993 53.8323C67.9993 48.4264 62.194 44.0745 51.6484 41.5755Z" fill="url(#paint0_linear)"/>
<path d="M34.0013 22.6684C35.5653 22.6684 36.8346 21.3992 36.8346 19.8352C36.8346 18.2712 35.5653 17.002 34.0013 17.002C32.4374 17.002 31.1681 18.2712 31.1681 19.8352C31.1681 21.3992 32.4374 22.6684 34.0013 22.6684Z" fill="url(#paint1_linear)"/>
<path d="M30.3124 52.7943L31.4656 55.1005C31.9473 56.061 32.9276 56.6673 34.0013 56.6673C35.0751 56.6673 36.0555 56.061 36.5371 55.1005L38.9793 50.2159C41.9515 44.2688 45.6177 38.5088 49.1621 32.9385L50.7771 30.3971C52.7773 27.2351 53.8342 23.583 53.8342 19.8346C53.8342 14.1907 51.4175 8.79607 47.2044 5.03357C42.9942 1.27385 37.3305 -0.52798 31.6838 0.135007C22.8666 1.13799 15.5851 8.23814 14.3639 17.0157C13.6415 22.2176 14.9419 27.3827 18.0217 31.5646C22.827 38.0753 26.5782 45.3201 30.3124 52.7943ZM34.0013 11.3349C38.6875 11.3349 42.5012 15.1485 42.5012 19.8347C42.5012 24.5209 38.6875 28.3345 34.0013 28.3345C29.3151 28.3345 25.5015 24.5209 25.5015 19.8347C25.5015 15.1485 29.3151 11.3349 34.0013 11.3349Z" fill="url(#paint2_linear)"/>
<defs>
<linearGradient id="paint0_linear" x1="34" y1="41.4961" x2="34" y2="67.9987" gradientUnits="userSpaceOnUse">
<stop stop-color="#46F080"/>
<stop offset="1" stop-color="#4EA566"/>
</linearGradient>
<linearGradient id="paint1_linear" x1="34.0013" y1="17.002" x2="34.0013" y2="22.6684" gradientUnits="userSpaceOnUse">
<stop stop-color="#46F080"/>
<stop offset="1" stop-color="#4EA566"/>
</linearGradient>
<linearGradient id="paint2_linear" x1="34.0016" y1="0" x2="34.0016" y2="56.6673" gradientUnits="userSpaceOnUse">
<stop stop-color="#46F080"/>
<stop offset="1" stop-color="#4EA566"/>
</linearGradient>
</defs>
</svg>
