<svg width="69" height="69" viewBox="0 0 69 69" fill="none" xmlns="http://www.w3.org/2000/svg">
<path d="M66.536 47.1188L40.2704 20.856V9.20915C40.2704 7.37051 39.8624 5.51767 39.0578 3.78939L38.4601 2.6562C37.7546 1.13483 36.2785 0.191406 34.6042 0.191406C32.9298 0.191406 31.4537 1.13483 30.7795 2.59099L30.1193 3.85168C29.3459 5.51754 28.9379 7.36759 28.9379 9.20902V20.8558L2.68085 47.1132C1.34367 48.4504 0.607025 50.2267 0.607025 52.1193L0.607025 55.4397C0.607025 55.9581 0.89029 56.4341 1.34367 56.6806C1.79693 56.9298 2.3523 56.9128 2.78855 56.6296L29.4876 39.5205C29.7511 43.8069 30.108 47.3852 30.5443 51.7397L30.9948 56.2018L21.0761 62.7548C20.6766 63.021 20.4387 63.463 20.4387 63.939V66.772C20.4387 67.1998 20.6341 67.6077 20.9684 67.8769C21.3056 68.1489 21.7446 68.2509 22.1611 68.1574L34.604 65.3894L47.047 68.1574C47.149 68.1801 47.251 68.1914 47.353 68.1914C47.6732 68.1914 47.9847 68.0837 48.2397 67.8797C48.5739 67.6077 48.7694 67.1998 48.7694 66.772L48.7694 63.939C48.7694 63.463 48.5314 63.0183 48.132 62.7576L38.2133 56.2131L38.6638 51.7368C39.1 47.3879 39.457 43.8127 39.7205 39.5261L66.4195 56.6295C66.8587 56.9127 67.4111 56.9269 67.8616 56.6804C68.3178 56.434 68.6011 55.958 68.6011 55.4396V52.1191C68.6013 50.2267 67.8676 48.4503 66.536 47.1188Z" fill="url(#paint0_linear)"/>
<defs>
<linearGradient id="paint0_linear" x1="34.604" y1="0.191406" x2="40.968" y2="108.437" gradientUnits="userSpaceOnUse">
<stop stop-color="#FFDF7D"/>
<stop offset="1" stop-color="#C68E00"/>
</linearGradient>
</defs>
</svg>
