<svg width="22" height="22" viewBox="0 0 22 22" fill="none" xmlns="http://www.w3.org/2000/svg">
<path d="M13.7499 10.0833H11.9166V6.41665C11.9166 6.17353 11.82 5.94037 11.6481 5.76847C11.4762 5.59656 11.243 5.49998 10.9999 5.49998C10.7568 5.49998 10.5237 5.59656 10.3517 5.76847C10.1798 5.94037 10.0833 6.17353 10.0833 6.41665V11C10.0833 11.2431 10.1798 11.4763 10.3517 11.6482C10.5237 11.8201 10.7568 11.9166 10.9999 11.9166H13.7499C13.993 11.9166 14.2262 11.8201 14.3981 11.6482C14.57 11.4763 14.6666 11.2431 14.6666 11C14.6666 10.7569 14.57 10.5237 14.3981 10.3518C14.2262 10.1799 13.993 10.0833 13.7499 10.0833ZM10.9999 1.83331C9.18693 1.83331 7.41465 2.37093 5.9072 3.37817C4.39974 4.38542 3.22483 5.81706 2.53103 7.49205C1.83722 9.16704 1.65569 11.0101 2.00939 12.7883C2.36309 14.5665 3.23613 16.1998 4.51811 17.4818C5.80009 18.7638 7.43344 19.6368 9.2116 19.9905C10.9898 20.3442 12.8329 20.1627 14.5079 19.4689C16.1828 18.7751 17.6145 17.6002 18.6217 16.0927C19.629 14.5853 20.1666 12.813 20.1666 11C20.1666 9.7962 19.9295 8.6042 19.4688 7.49205C19.0082 6.3799 18.3329 5.36937 17.4817 4.51817C16.6305 3.66696 15.62 2.99175 14.5079 2.53108C13.3957 2.07042 12.2037 1.83331 10.9999 1.83331ZM10.9999 18.3333C9.54953 18.3333 8.1317 17.9032 6.92574 17.0974C5.71978 16.2916 4.77985 15.1463 4.22481 13.8063C3.66976 12.4663 3.52454 10.9918 3.8075 9.56932C4.09046 8.14679 4.78889 6.84012 5.81447 5.81453C6.84006 4.78894 8.14673 4.09051 9.56926 3.80755C10.9918 3.5246 12.4663 3.66982 13.8063 4.22486C15.1463 4.77991 16.2916 5.71984 17.0974 6.9258C17.9032 8.13176 18.3333 9.54958 18.3333 11C18.3333 12.9449 17.5606 14.8102 16.1854 16.1854C14.8101 17.5607 12.9448 18.3333 10.9999 18.3333Z" fill="black"/>
</svg>
