<svg width="70" height="70" viewBox="0 0 70 70" fill="none" xmlns="http://www.w3.org/2000/svg">
<path d="M16.5429 28.8475C7.42106 28.8475 0 36.2074 0 45.2537C0 56.3226 14.5862 68.9719 15.207 69.5049C15.5913 69.8348 16.0671 69.9997 16.5429 69.9997C17.0218 69.9997 17.5008 69.8327 17.886 69.4986C18.5011 68.9657 32.9491 56.3168 32.9491 45.2537C32.9491 36.2074 25.5893 28.8475 16.5429 28.8475ZM51.543 28.8475C52.1125 28.8475 52.6563 28.6107 53.0442 28.1939C57.0917 23.8446 61.7969 15.0606 61.7969 10.2539C61.7969 4.59988 57.197 0 51.543 0C45.8891 0 41.2892 4.59988 41.2892 10.2539C41.2892 15.0606 45.9942 23.8446 50.0419 28.1939C50.4297 28.6107 50.9736 28.8475 51.543 28.8475ZM42.9632 48.9896C44.0466 49.3249 45.1941 48.7171 45.5285 47.6367C45.8634 46.5547 45.2578 45.4062 44.1757 45.0713C42.4492 44.537 41.2892 42.9621 41.2892 41.1548C41.2893 41.0816 41.2911 41.0089 41.2946 40.9366C41.3518 39.8054 40.4812 38.8421 39.35 38.7849C38.2223 38.7268 37.2554 39.5984 37.1983 40.7296C37.1913 40.8674 37.1878 41.0088 37.1875 41.1522C37.1876 44.7708 39.5087 47.9204 42.9632 48.9896ZM45.3907 32.9491C44.8526 32.9491 44.3141 33.0017 43.7899 33.1056C42.6788 33.3257 41.9566 34.4049 42.1767 35.5158C42.3969 36.6267 43.4757 37.3491 44.587 37.1288C44.8493 37.0769 45.1196 37.0505 45.3907 37.0505H52.3182C53.4508 37.0505 54.369 36.1323 54.369 34.9997C54.369 33.8671 53.4508 32.949 52.3182 32.949H45.3907V32.9491ZM63.8477 32.9491H60.4561C59.3235 32.9491 58.4053 33.8673 58.4053 34.9999C58.4053 36.1324 59.3235 37.0506 60.4561 37.0506H63.8477C66.2876 37.0506 68.4988 35.6074 69.4812 33.3737C69.9371 32.337 69.4664 31.1269 68.4296 30.6708C67.3929 30.2147 66.1828 30.6854 65.7267 31.7223C65.399 32.4676 64.6614 32.9491 63.8477 32.9491ZM57.6954 26.7968C57.6954 27.9293 58.6136 28.8475 59.7461 28.8475H63.8477C64.9803 28.8475 65.8985 27.9293 65.8985 26.7968C65.8985 25.6642 64.9803 24.746 63.8477 24.746H59.7461C58.6136 24.746 57.6954 25.6642 57.6954 26.7968ZM68.0508 50.9099C67.438 49.9574 66.1693 49.6819 65.2166 50.2944C64.264 50.907 63.9885 52.176 64.6011 53.1286C65.45 54.4483 65.8986 55.9801 65.8985 57.5584C65.8985 58.1702 65.831 58.782 65.6982 59.3767C65.4117 60.6591 66.389 61.875 67.7015 61.875C68.6407 61.875 69.4877 61.2256 69.7011 60.2709C69.8994 59.383 70 58.4704 70 57.5585C70.0001 55.1919 69.3261 52.8927 68.0508 50.9099ZM62.0501 64.6092C60.7435 65.4525 59.2377 65.8982 57.6954 65.8982H55.3392C54.2066 65.8982 53.2884 66.8164 53.2884 67.949C53.2884 69.0815 54.2066 69.9997 55.3392 69.9997H57.6954C60.0283 69.9997 62.3033 69.3273 64.2741 68.0553C65.2258 67.441 65.4994 66.1718 64.8851 65.2202C64.2708 64.2685 63.0014 63.9951 62.0501 64.6092ZM59.3825 49.5286C60.4885 49.7597 61.5771 49.0513 61.8091 47.9402C62.0405 46.8316 61.3293 45.7451 60.2207 45.5136C59.3949 45.3412 58.5453 45.2537 57.6954 45.2537H51.6793C50.5468 45.2537 49.6286 46.1719 49.6286 47.3045C49.6286 48.4371 50.5468 49.3553 51.6793 49.3553H57.6954C58.2641 49.3553 58.8316 49.4135 59.3825 49.5286ZM30.8986 65.8982H26.797C25.6645 65.8982 24.7463 66.8164 24.7463 67.949C24.7463 69.0815 25.6645 69.9997 26.797 69.9997H30.8986C32.0312 69.9997 32.9494 69.0815 32.9494 67.949C32.9494 66.8164 32.0312 65.8982 30.8986 65.8982ZM47.2011 65.8982H39.0633C37.9307 65.8982 37.0125 66.8164 37.0125 67.949C37.0125 69.0815 37.9307 69.9997 39.0633 69.9997H47.2011C48.3337 69.9997 49.2519 69.0815 49.2519 67.949C49.2519 66.8164 48.3337 65.8982 47.2011 65.8982Z" fill="url(#paint0_linear)"/>
<defs>
<linearGradient id="paint0_linear" x1="35" y1="69.9997" x2="35" y2="0" gradientUnits="userSpaceOnUse">
<stop stop-color="#FD3A84"/>
<stop offset="1" stop-color="#FFA68D"/>
</linearGradient>
</defs>
</svg>
