<svg width="37" height="37" viewBox="0 0 37 37" fill="none" xmlns="http://www.w3.org/2000/svg">
<rect width="37" height="37" rx="18.5" fill="white"/>
<path d="M23.8333 18.166H12.1667C11.2462 18.166 10.5 18.9122 10.5 19.8327V25.666C10.5 26.5865 11.2462 27.3327 12.1667 27.3327H23.8333C24.7538 27.3327 25.5 26.5865 25.5 25.666V19.8327C25.5 18.9122 24.7538 18.166 23.8333 18.166Z" stroke="#4D94FE" stroke-width="3" stroke-linecap="round" stroke-linejoin="round"/>
<path d="M13.8333 18.166V14.8327C13.8333 13.7276 14.2723 12.6678 15.0537 11.8864C15.8351 11.105 16.8949 10.666 18 10.666C19.1051 10.666 20.1649 11.105 20.9463 11.8864C21.7277 12.6678 22.1667 13.7276 22.1667 14.8327V18.166" stroke="#4D94FE" stroke-width="3" stroke-linecap="round" stroke-linejoin="round"/>
</svg>
