<svg width="22" height="22" viewBox="0 0 22 22" fill="none" xmlns="http://www.w3.org/2000/svg">
<path fill-rule="evenodd" clip-rule="evenodd" d="M11.9166 10.0833C10.2081 10.0833 8.77247 8.91479 8.36543 7.33333H1.83325V5.5H8.36543C8.77247 3.91854 10.2081 2.75 11.9166 2.75C13.9416 2.75 15.5833 4.39162 15.5833 6.41667C15.5833 8.44171 13.9416 10.0833 11.9166 10.0833ZM17.4166 5.5H20.1666V7.33333H17.4166V5.5ZM7.33325 19.25C5.62473 19.25 4.18914 18.0815 3.7821 16.5H1.83325V14.6667H3.7821C4.18914 13.0852 5.62473 11.9167 7.33325 11.9167C9.3583 11.9167 10.9999 13.5583 10.9999 15.5833C10.9999 17.6084 9.3583 19.25 7.33325 19.25ZM12.8333 16.5H20.1666V14.6667H12.8333V16.5ZM9.16658 15.5833C9.16658 16.5959 8.34577 17.4167 7.33325 17.4167C6.32073 17.4167 5.49992 16.5959 5.49992 15.5833C5.49992 14.5708 6.32073 13.75 7.33325 13.75C8.34577 13.75 9.16658 14.5708 9.16658 15.5833ZM13.7499 6.41667C13.7499 7.42919 12.9291 8.25 11.9166 8.25C10.9041 8.25 10.0833 7.42919 10.0833 6.41667C10.0833 5.40414 10.9041 4.58333 11.9166 4.58333C12.9291 4.58333 13.7499 5.40414 13.7499 6.41667Z" fill="black"/>
</svg>
