<svg width="67" height="67" viewBox="0 0 67 67" fill="none" xmlns="http://www.w3.org/2000/svg">
<path d="M33.5 67C52.0015 67 67 52.0015 67 33.5C67 14.9985 52.0015 0 33.5 0C14.9985 0 0 14.9985 0 33.5C0 52.0015 14.9985 67 33.5 67Z" fill="url(#paint0_linear)"/>
<path d="M52.8124 24.6166C47.7454 19.5615 40.8801 16.7225 33.7227 16.7225C26.5652 16.7225 19.6999 19.5615 14.6329 24.6166L12 21.9837C17.7656 16.2309 25.5778 13 33.7227 13C41.8675 13 49.6797 16.2309 55.4453 21.9837L52.8124 24.6166Z" fill="#EEEFEE"/>
<path d="M46.2297 31.199C42.9098 27.887 38.4119 26.027 33.7224 26.027C29.033 26.027 24.535 27.887 21.2151 31.199L18.5822 28.5661C22.6008 24.5565 28.0457 22.3047 33.7224 22.3047C39.3991 22.3047 44.8441 24.5565 48.8626 28.5661L46.2297 31.199Z" fill="#EEEFEE"/>
<path d="M39.6474 37.7823C38.0748 36.2136 35.9442 35.3326 33.7229 35.3326C31.5016 35.3326 29.371 36.2136 27.7984 37.7823L25.1655 35.1494C27.4368 32.8825 30.5147 31.6094 33.7237 31.6094C36.9327 31.6094 40.0106 32.8825 42.2819 35.1494L39.6474 37.7823Z" fill="#EEEFEE"/>
<path fill-rule="evenodd" clip-rule="evenodd" d="M30.4747 43L28.429 45.0457L31.6688 48.2855L28.4285 51.5258L30.4742 53.5715L33.7145 50.3311L36.9543 53.571L39 51.5253L35.7601 48.2855L38.9995 45.0461L36.9539 43.0005L33.7145 46.2398L30.4747 43Z" fill="#EEEFEE"/>
<defs>
<linearGradient id="paint0_linear" x1="33.5" y1="0" x2="33.5" y2="67" gradientUnits="userSpaceOnUse">
<stop stop-color="#B8C7D3"/>
<stop offset="1" stop-color="#5B6D7C"/>
</linearGradient>
</defs>
</svg>
