<svg width="22" height="22" viewBox="0 0 22 22" fill="none" xmlns="http://www.w3.org/2000/svg">
<g clip-path="url(#clip0)">
<path d="M11.5539 12.957H10.4461C10.0432 12.957 9.71688 12.5964 9.71688 12.1513C9.71688 11.7062 10.0432 11.3457 10.4461 11.3457H12.3959C12.6618 11.3457 12.8794 11.1053 12.8794 10.8116C12.8794 10.5178 12.6618 10.2774 12.3959 10.2774H11.4814V9.53412C11.4814 9.24036 11.2639 9 10.998 9C10.7321 9 10.5145 9.24036 10.5145 9.53412V10.2774H10.4461C9.51141 10.2774 8.75 11.1187 8.75 12.1513C8.75 13.184 9.51141 14.0252 10.4461 14.0252H11.5539C11.9568 14.0252 12.2831 14.3858 12.2831 14.8309C12.2831 15.276 11.9568 15.6365 11.5539 15.6365H9.56782C9.30192 15.6365 9.08438 15.8769 9.08438 16.1706C9.08438 16.4644 9.30192 16.7047 9.56782 16.7047H10.5186V17.4659C10.5186 17.7596 10.7361 18 11.002 18C11.2679 18 11.4855 17.7596 11.4855 17.4659V16.7047H11.566C11.5701 16.7047 11.5741 16.7047 11.5781 16.7047C12.5047 16.6914 13.25 15.8546 13.25 14.8309C13.25 13.7982 12.4886 12.957 11.5539 12.957Z" fill="black" stroke="black" stroke-width="0.8"/>
<path fill-rule="evenodd" clip-rule="evenodd" d="M18.9632 11.9931C18.4143 10.727 17.6563 9.50021 16.698 8.35197C15.5392 6.95489 14.3848 6.02058 13.7967 5.58836L16.0184 1.45821C16.1273 1.25301 16.0924 0.999792 15.9226 0.838254C15.3475 0.275052 14.7377 0 14.0581 0C13.4351 0 12.8645 0.235759 12.3679 0.445322L12.3271 0.46212L12.3271 0.462123C11.9502 0.617583 11.5951 0.764033 11.3049 0.764033C11.2135 0.764033 11.135 0.750936 11.0566 0.720374C10.0198 0.340541 9.22265 0.104782 8.4516 0.104782C7.4758 0.104782 6.64376 0.497713 5.82914 1.33597C5.65924 1.5106 5.63311 1.78566 5.76815 1.99085L8.16409 5.61892C7.57164 6.05988 6.43901 6.98545 5.30203 8.35197C4.34802 9.50021 3.58567 10.727 3.03679 11.9931C2.3485 13.5867 2 15.2501 2 16.9353C2 19.1751 3.82091 21 6.05566 21H15.9443C18.1791 21 20 19.1751 20 16.9353C20 15.2501 19.6515 13.5867 18.9632 11.9931ZM6.88342 1.77255C7.38875 1.33596 7.87229 1.14386 8.45167 1.14386C9.07026 1.14386 9.76726 1.35342 10.6951 1.69833C10.8868 1.76818 11.0916 1.80311 11.3007 1.80311C11.8103 1.80311 12.2982 1.60228 12.7644 1.40581L12.7673 1.40458C13.2149 1.21729 13.6409 1.03908 14.0538 1.03908C14.2542 1.03908 14.5373 1.07401 14.8946 1.32723L12.8036 5.22161H9.16174L6.88342 1.77255ZM6.0557 19.9522H15.9444C17.6041 19.9522 18.9545 18.5988 18.9458 16.9353C18.9458 14.1324 17.9265 11.4823 15.9095 9.04615C14.6375 7.50499 13.348 6.54449 12.9516 6.26944H9.03972C8.64766 6.54886 7.35386 7.50499 6.08183 9.04615C4.06925 11.4823 3.04553 14.1368 3.04553 16.9353C3.04553 18.5988 4.39597 19.9522 6.0557 19.9522Z" fill="black"/>
<path d="M16.698 8.35197L16.3901 8.60734L16.3909 8.60829L16.698 8.35197ZM18.9632 11.9931L19.3304 11.8345L19.3302 11.834L18.9632 11.9931ZM13.7967 5.58836L13.4444 5.39887L13.2798 5.70488L13.5598 5.91067L13.7967 5.58836ZM16.0184 1.45821L16.3707 1.64771L16.3717 1.64573L16.0184 1.45821ZM15.9226 0.838254L15.6426 1.12405L15.6469 1.12813L15.9226 0.838254ZM12.3679 0.445322L12.5203 0.815136L12.5234 0.813853L12.3679 0.445322ZM12.3271 0.46212L12.4607 0.839171L12.4702 0.835786L12.4796 0.831921L12.3271 0.46212ZM12.3271 0.462123L12.1936 0.0850719L12.184 0.0884643L12.1746 0.0923385L12.3271 0.462123ZM11.0566 0.720374L11.2019 0.347603L11.1942 0.344786L11.0566 0.720374ZM5.82914 1.33597L6.11585 1.61489L6.116 1.61474L5.82914 1.33597ZM5.76815 1.99085L5.43402 2.21075L5.43437 2.21128L5.76815 1.99085ZM8.16409 5.61892L8.40291 5.9398L8.70625 5.71403L8.49787 5.39849L8.16409 5.61892ZM5.30203 8.35197L4.99455 8.09614L4.99437 8.09635L5.30203 8.35197ZM3.03679 11.9931L2.66979 11.834L2.66957 11.8345L3.03679 11.9931ZM6.88342 1.77255L6.62192 1.46987L6.35591 1.6997L6.54966 1.99302L6.88342 1.77255ZM10.6951 1.69833L10.5558 2.07327L10.5582 2.07415L10.6951 1.69833ZM12.7644 1.40581L12.61 1.03679L12.609 1.03722L12.7644 1.40581ZM12.7673 1.40458L12.9217 1.7736L12.9217 1.77358L12.7673 1.40458ZM14.8946 1.32723L15.247 1.51645L15.4141 1.2052L15.1259 1.0009L14.8946 1.32723ZM12.8036 5.22161V5.62161H13.0428L13.156 5.41083L12.8036 5.22161ZM9.16174 5.22161L8.82798 5.44208L8.94657 5.62161H9.16174V5.22161ZM18.9458 16.9353H18.5458L18.5458 16.9374L18.9458 16.9353ZM15.9095 9.04615L15.601 9.30078L15.6014 9.30124L15.9095 9.04615ZM12.9516 6.26944L13.1797 5.9408L13.0768 5.86944H12.9516V6.26944ZM9.03972 6.26944V5.86944H8.91177L8.80757 5.9437L9.03972 6.26944ZM6.08183 9.04615L6.39021 9.30091L6.39033 9.30078L6.08183 9.04615ZM16.3909 8.60829C17.3259 9.7286 18.0633 10.9229 18.5962 12.1522L19.3302 11.834C18.7654 10.5311 17.9867 9.27182 17.0051 8.09566L16.3909 8.60829ZM13.5598 5.91067C14.1294 6.32927 15.2575 7.24185 16.3901 8.60734L17.0058 8.09661C15.8209 6.66792 14.6402 5.71189 14.0336 5.26605L13.5598 5.91067ZM15.6661 1.26872L13.4444 5.39887L14.149 5.77785L16.3707 1.6477L15.6661 1.26872ZM15.6469 1.12813C15.6806 1.16015 15.6939 1.21642 15.6651 1.27069L16.3717 1.64573C16.5607 1.28961 16.5043 0.839431 16.1982 0.548373L15.6469 1.12813ZM14.0581 0.4C14.6136 0.4 15.1273 0.619202 15.6427 1.12402L16.2024 0.552488C15.5678 -0.0690981 14.8618 -0.4 14.0581 -0.4V0.4ZM12.5234 0.813853C13.028 0.600913 13.5275 0.4 14.0581 0.4V-0.4C13.3428 -0.4 12.701 -0.129395 12.2123 0.0767913L12.5234 0.813853ZM12.4796 0.831921L12.5203 0.815124L12.2154 0.0755209L12.1747 0.0923184L12.4796 0.831921ZM12.4607 0.839174L12.4607 0.839171L12.1936 0.0850689L12.1936 0.0850719L12.4607 0.839174ZM11.3049 1.16403C11.5117 1.16403 11.7196 1.11285 11.9073 1.05173C12.0968 0.990048 12.2946 0.908233 12.4796 0.831907L12.1746 0.0923385C11.9827 0.171473 11.8145 0.240613 11.6597 0.291023C11.5031 0.341996 11.3883 0.364033 11.3049 0.364033V1.16403ZM10.9114 1.09307C11.0428 1.1443 11.1715 1.16403 11.3049 1.16403V0.364033C11.2554 0.364033 11.2273 0.357573 11.2019 0.347681L10.9114 1.09307ZM8.4516 0.504782C9.14543 0.504782 9.884 0.716773 10.919 1.09596L11.1942 0.344786C10.1557 -0.0356919 9.29988 -0.295218 8.4516 -0.295218V0.504782ZM6.116 1.61474C6.87204 0.836761 7.60573 0.504782 8.4516 0.504782V-0.295218C7.34586 -0.295218 6.41548 0.158665 5.54228 1.0572L6.116 1.61474ZM6.10228 1.77095C6.06992 1.72178 6.0775 1.65431 6.11585 1.61489L5.54243 1.05704C5.24099 1.3669 5.1963 1.84953 5.43402 2.21075L6.10228 1.77095ZM8.49787 5.39849L6.10193 1.77043L5.43437 2.21128L7.8303 5.83935L8.49787 5.39849ZM5.60952 8.60781C6.7209 7.27205 7.82808 6.36764 8.40291 5.9398L7.92526 5.29804C7.31519 5.75211 6.15713 6.69884 4.99455 8.09614L5.60952 8.60781ZM3.40378 12.1522C3.93647 10.9235 4.6781 9.72884 5.6097 8.6076L4.99437 8.09635C4.01793 9.27158 3.23487 10.5306 2.66979 11.834L3.40378 12.1522ZM2.4 16.9353C2.4 15.3062 2.73672 13.6967 3.404 12.1517L2.66957 11.8345C1.96028 13.4767 1.6 15.194 1.6 16.9353H2.4ZM6.05566 20.6C4.04266 20.6 2.4 18.955 2.4 16.9353H1.6C1.6 19.3951 3.59916 21.4 6.05566 21.4V20.6ZM15.9443 20.6H6.05566V21.4H15.9443V20.6ZM19.6 16.9353C19.6 18.955 17.9573 20.6 15.9443 20.6V21.4C18.4008 21.4 20.4 19.3951 20.4 16.9353H19.6ZM18.596 12.1517C19.2633 13.6967 19.6 15.3062 19.6 16.9353H20.4C20.4 15.194 20.0397 13.4767 19.3304 11.8345L18.596 12.1517ZM8.45167 0.74386C7.76291 0.74386 7.18912 0.979822 6.62192 1.46987L7.14493 2.07523C7.58838 1.6921 7.98167 1.54386 8.45167 1.54386V0.74386ZM10.8345 1.32339C9.90894 0.979349 9.15036 0.74386 8.45167 0.74386V1.54386C8.99015 1.54386 9.62557 1.7275 10.5558 2.07326L10.8345 1.32339ZM11.3007 1.40311C11.1361 1.40311 10.9779 1.37563 10.8321 1.32251L10.5582 2.07415C10.7957 2.16073 11.047 2.20311 11.3007 2.20311V1.40311ZM12.609 1.03722C12.1311 1.23863 11.7167 1.40311 11.3007 1.40311V2.20311C11.904 2.20311 12.4653 1.96592 12.9197 1.77441L12.609 1.03722ZM12.613 1.03556L12.61 1.03679L12.9187 1.77483L12.9217 1.7736L12.613 1.03556ZM14.0538 0.639078C13.5447 0.639078 13.0398 0.856978 12.6129 1.03557L12.9217 1.77358C13.3901 1.57761 13.737 1.43908 14.0538 1.43908V0.639078ZM15.1259 1.0009C14.6887 0.690961 14.3205 0.639078 14.0538 0.639078V1.43908C14.1879 1.43908 14.386 1.45705 14.6632 1.65355L15.1259 1.0009ZM13.156 5.41083L15.247 1.51645L14.5421 1.13801L12.4511 5.03239L13.156 5.41083ZM9.16174 5.62161H12.8036V4.82161H9.16174V5.62161ZM6.54966 1.99302L8.82798 5.44208L9.4955 5.00115L7.21718 1.55208L6.54966 1.99302ZM15.9444 19.5522H6.0557V20.3522H15.9444V19.5522ZM18.5458 16.9374C18.5534 18.3787 17.3828 19.5522 15.9444 19.5522V20.3522C17.8254 20.3522 19.3557 18.8188 19.3458 16.9333L18.5458 16.9374ZM15.6014 9.30124C17.567 11.6754 18.5458 14.2374 18.5458 16.9353H19.3458C19.3458 14.0274 18.2859 11.2893 16.2176 8.79107L15.6014 9.30124ZM12.7236 6.59808C13.1005 6.85958 14.3593 7.79629 15.601 9.30078L16.218 8.79153C14.9157 7.21369 13.5956 6.22941 13.1797 5.9408L12.7236 6.59808ZM9.03972 6.66944H12.9516V5.86944H9.03972V6.66944ZM6.39033 9.30078C7.63116 7.79741 8.8939 6.86456 9.27187 6.59518L8.80757 5.9437C8.40143 6.23316 7.07656 7.21258 5.77334 8.79153L6.39033 9.30078ZM3.44553 16.9353C3.44553 14.2421 4.42854 11.6755 6.39021 9.30091L5.77346 8.7914C3.70996 11.2892 2.64553 14.0315 2.64553 16.9353H3.44553ZM6.0557 19.5522C4.61772 19.5522 3.44553 18.3787 3.44553 16.9353H2.64553C2.64553 18.8188 4.17422 20.3522 6.0557 20.3522V19.5522Z" fill="black"/>
</g>
<defs>
<clipPath id="clip0">
<rect width="22" height="22" fill="white"/>
</clipPath>
</defs>
</svg>
