<svg width="68" height="68" viewBox="0 0 68 68" fill="none" xmlns="http://www.w3.org/2000/svg">
<g clip-path="url(#clip0)">
<path d="M10.6194 8.95654L10.6196 8.95632L11.0808 8.53168V4.53333C11.0808 1.93539 13.364 -0.15 16.1539 -0.15H53.0769C55.8668 -0.15 58.15 1.93539 58.15 4.53333V63.4667C58.15 66.0646 55.8668 68.15 53.0769 68.15H16.1539C13.364 68.15 11.0808 66.0646 11.0808 63.4667V30.4708L10.62 30.0465C10.6199 30.0465 10.6199 30.0464 10.6199 30.0464C10.1271 29.5954 9.84818 28.9788 9.85001 28.3331M10.6194 8.95654L11.2308 16.3359M10.6194 8.95654C10.1299 9.40919 9.85174 10.0243 9.85001 10.6688V10.6692L9.85001 14.2641L9.85001 14.2645C9.85174 14.9091 10.1299 15.5241 10.6194 15.9768L10.6196 15.977L11.0808 16.4016M10.6194 8.95654L11.2308 16.3359M9.85001 28.3331C9.85001 28.333 9.85001 28.333 9.85001 28.3329L10 28.3333H9.85001V28.3331ZM9.85001 28.3331V19.7359V19.7355C9.85174 19.0909 10.1299 18.4759 10.6194 18.0232L10.6196 18.023L11.0808 17.5984M11.0808 17.5984V17.6641H11.2308L11.1292 17.5538L11.0808 17.5984ZM11.0808 17.5984V16.4016M11.0808 16.4016L11.1292 16.4462L11.2308 16.3359M11.0808 16.4016V16.3359H11.2308M29.6923 65.5833C29.0835 65.5833 28.6115 65.1317 28.6115 64.6C28.6115 64.0683 29.0835 63.6167 29.6923 63.6167H39.5385C40.1472 63.6167 40.6192 64.0683 40.6192 64.6C40.6192 65.1317 40.1472 65.5833 39.5385 65.5833H29.6923ZM44.3115 2.41667V3.4C44.3115 3.93167 43.8396 4.38333 43.2308 4.38333H26C25.3912 4.38333 24.9192 3.93167 24.9192 3.4V2.41667H44.3115Z" fill="url(#paint0_linear)" stroke="url(#paint1_linear)" stroke-width="0.3"/>
<path d="M21.0769 21.3281C21.6717 21.3281 22.1538 20.8559 22.1538 20.2734V17.1094H25.3846C25.9794 17.1094 26.4615 16.6372 26.4615 16.0547C26.4615 15.4722 25.9794 15 25.3846 15H21.0769C20.4822 15 20 15.4722 20 16.0547V20.2734C20 20.8559 20.4822 21.3281 21.0769 21.3281ZM25.3846 48.8906H22.1538V45.7266C22.1538 45.1441 21.6717 44.6719 21.0769 44.6719C20.4822 44.6719 20 45.1441 20 45.7266V49.9453C20 50.5278 20.4822 51 21.0769 51H25.3846C25.9794 51 26.4615 50.5278 26.4615 49.9453C26.4615 49.3628 25.9794 48.8906 25.3846 48.8906ZM46.9231 15H42.6154C42.0206 15 41.5385 15.4722 41.5385 16.0547C41.5385 16.6372 42.0206 17.1094 42.6154 17.1094H45.8462V20.2734C45.8462 20.8559 46.3283 21.3281 46.9231 21.3281C47.5178 21.3281 48 20.8559 48 20.2734V16.0547C48 15.4722 47.5178 15 46.9231 15ZM46.9231 44.6719C46.3283 44.6719 45.8462 45.1441 45.8462 45.7266V48.8906H42.6154C42.0206 48.8906 41.5385 49.3628 41.5385 49.9453C41.5385 50.5278 42.0206 51 42.6154 51H46.9231C47.5178 51 48 50.5278 48 49.9453V45.7266C48 45.1441 47.5178 44.6719 46.9231 44.6719ZM27.7982 31.8054C28.5686 33.2538 29.6083 34.4355 30.7692 35.1953V36.2344H29.6923C26.7232 36.2344 24.3077 38.6 24.3077 41.5078V43.6172C24.3077 44.1997 24.7899 44.6719 25.3846 44.6719H42.6154C43.2101 44.6719 43.6923 44.1997 43.6923 43.6172V41.5078C43.6923 38.6 41.2768 36.2344 38.3077 36.2344H37.2308V35.1953C38.3917 34.4354 39.4313 33.2537 40.2018 31.8054C41.0638 30.1849 41.5385 28.3368 41.5385 26.6016C41.5385 22.0282 38.2577 19.2188 34 19.2188C29.7504 19.2188 26.4615 22.0206 26.4615 26.6016C26.4615 28.3368 26.9362 30.1849 27.7982 31.8054Z" fill="white"/>
</g>
<defs>
<linearGradient id="paint0_linear" x1="34" y1="0" x2="34" y2="68" gradientUnits="userSpaceOnUse">
<stop stop-color="#FF8383"/>
<stop offset="1" stop-color="#D22E2E"/>
</linearGradient>
<linearGradient id="paint1_linear" x1="34" y1="0" x2="34" y2="68" gradientUnits="userSpaceOnUse">
<stop stop-color="#FF8383"/>
<stop offset="1" stop-color="#D22E2E"/>
</linearGradient>
<clipPath id="clip0">
<rect width="68" height="68" fill="white"/>
</clipPath>
</defs>
</svg>
