<svg width="22" height="22" viewBox="0 0 22 22" fill="none" xmlns="http://www.w3.org/2000/svg">
<path fill-rule="evenodd" clip-rule="evenodd" d="M17.1016 19.1556L19.134 17.1232L18.4182 14.5227L18.73 13.7779L21.0834 12.45V9.5759L18.7367 8.24242L18.4301 7.49895L19.1549 4.89717L17.121 2.86628L14.5203 3.58187L13.7772 3.27029L12.4492 0.916687H9.57507L8.24157 3.26339L7.49828 3.56994L4.8969 2.84426L2.86623 4.87492L3.58194 7.47604L3.27036 8.21915L0.916748 9.54721V12.4205L3.26134 13.7569L3.56823 14.501L2.84355 17.1024L4.875 19.1338L7.47612 18.4181L8.21932 18.7297L9.54741 21.0824H12.4208L13.7563 18.7377L14.5002 18.4309L17.1016 19.1556ZM17.2816 12.4901L16.4824 14.3987L17.0832 16.5811L16.5621 17.1022L14.3844 16.4955L12.4749 17.283L11.3551 19.249H10.6177L9.50712 17.2817L7.60058 16.4824L5.417 17.0832L4.89685 16.563L5.50353 14.3853L4.71608 12.4759L2.74999 11.3552V10.6178L4.71817 9.50719L5.51759 7.60057L4.91677 5.417L5.43584 4.89793L7.61361 5.50544L9.52374 4.71766L10.6419 2.75H11.3785L12.4891 4.71817L14.3957 5.51759L16.5797 4.91665L17.1012 5.43734L16.4946 7.61469L17.2823 9.52465L19.25 10.6428V11.3794L17.2816 12.4901ZM11.0001 14.6666C8.97502 14.6666 7.3334 13.025 7.3334 11C7.3334 8.97495 8.97502 7.33334 11.0001 7.33334C13.0251 7.33334 14.6667 8.97495 14.6667 11C14.6667 13.025 13.0251 14.6666 11.0001 14.6666ZM12.8334 11C12.8334 12.0125 12.0126 12.8333 11.0001 12.8333C9.98756 12.8333 9.16675 12.0125 9.16675 11C9.16675 9.98748 9.98756 9.16667 11.0001 9.16667C12.0126 9.16667 12.8334 9.98748 12.8334 11Z" fill="black"/>
</svg>
