<svg width="67" height="67" viewBox="0 0 67 67" fill="none" xmlns="http://www.w3.org/2000/svg">
<path d="M55.4844 8.375H43.9688V6.28125C43.9688 2.81217 41.1566 0 37.6875 0H29.3125C25.8434 0 23.0312 2.81217 23.0312 6.28125V8.375H11.5156C8.62481 8.375 6.28125 10.7186 6.28125 13.6094V17.7969C6.28125 18.9533 7.2186 19.8906 8.375 19.8906H58.625C59.7814 19.8906 60.7188 18.9533 60.7188 17.7969V13.6094C60.7188 10.7186 58.3752 8.375 55.4844 8.375ZM27.2188 6.28125C27.2188 5.12707 28.1583 4.1875 29.3125 4.1875H37.6875C38.8417 4.1875 39.7812 5.12707 39.7812 6.28125V8.375H27.2188V6.28125Z" fill="url(#paint0_linear)"/>
<path d="M10.2547 24.0781C9.88107 24.0781 9.58336 24.3904 9.60116 24.7636L11.3285 61.0171C11.4882 64.3723 14.2441 67 17.6019 67H49.3981C52.756 67 55.5119 64.3723 55.6715 61.0171L57.3989 24.7636C57.4166 24.3904 57.1189 24.0781 56.7453 24.0781H10.2547ZM41.875 29.3125C41.875 28.1557 42.812 27.2188 43.9688 27.2188C45.1256 27.2188 46.0625 28.1557 46.0625 29.3125V56.5312C46.0625 57.688 45.1256 58.625 43.9688 58.625C42.812 58.625 41.875 57.688 41.875 56.5312V29.3125ZM31.4063 29.3125C31.4063 28.1557 32.3432 27.2188 33.5 27.2188C34.6568 27.2188 35.5938 28.1557 35.5938 29.3125V56.5312C35.5938 57.688 34.6568 58.625 33.5 58.625C32.3432 58.625 31.4063 57.688 31.4063 56.5312V29.3125ZM20.9375 29.3125C20.9375 28.1557 21.8745 27.2188 23.0313 27.2188C24.1881 27.2188 25.125 28.1557 25.125 29.3125V56.5312C25.125 57.688 24.1881 58.625 23.0313 58.625C21.8745 58.625 20.9375 57.688 20.9375 56.5312V29.3125Z" fill="url(#paint1_linear)"/>
<defs>
<linearGradient id="paint0_linear" x1="33.5" y1="0" x2="33.5" y2="19.8906" gradientUnits="userSpaceOnUse">
<stop stop-color="#FF7979"/>
<stop offset="1" stop-color="#FF7979"/>
</linearGradient>
<linearGradient id="paint1_linear" x1="33.5" y1="24.0781" x2="33.5" y2="67" gradientUnits="userSpaceOnUse">
<stop stop-color="#FF7979"/>
<stop offset="1" stop-color="#DC3333"/>
</linearGradient>
</defs>
</svg>
