<svg width="20" height="20" viewBox="0 0 22 22" fill="none" xmlns="http://www.w3.org/2000/svg">
<path d="M19.9009 18.5991L16.5 15.2258C17.8201 13.5798 18.4594 11.4907 18.2864 9.38783C18.1135 7.285 17.1414 5.32836 15.5701 3.92023C13.9988 2.5121 11.9477 1.75952 9.83855 1.81724C7.7294 1.87495 5.72253 2.73857 4.23058 4.23052C2.73863 5.72247 1.87501 7.72934 1.8173 9.83849C1.75959 11.9476 2.51216 13.9987 3.92029 15.57C5.32842 17.1413 7.28506 18.1134 9.38789 18.2864C11.4907 18.4594 13.5799 17.8201 15.2259 16.5L18.5992 19.8733C18.6844 19.9592 18.7858 20.0274 18.8975 20.074C19.0092 20.1205 19.129 20.1445 19.25 20.1445C19.371 20.1445 19.4909 20.1205 19.6026 20.074C19.7143 20.0274 19.8157 19.9592 19.9009 19.8733C20.0661 19.7024 20.1584 19.474 20.1584 19.2362C20.1584 18.9985 20.0661 18.7701 19.9009 18.5991V18.5991ZM10.0834 16.5C8.81427 16.5 7.57367 16.1236 6.51846 15.4186C5.46324 14.7135 4.6408 13.7114 4.15514 12.5389C3.66948 11.3664 3.54241 10.0762 3.79 8.83148C4.03758 7.58677 4.64871 6.44343 5.5461 5.54604C6.44349 4.64865 7.58683 4.03752 8.83154 3.78993C10.0762 3.54235 11.3664 3.66942 12.5389 4.15508C13.7114 4.64074 14.7136 5.46318 15.4186 6.5184C16.1237 7.57361 16.5 8.81421 16.5 10.0833C16.5 11.7851 15.824 13.4172 14.6206 14.6206C13.4173 15.8239 11.7852 16.5 10.0834 16.5V16.5Z" fill="grey"/>
</svg>
