<svg width="70" height="70" viewBox="0 0 70 70" fill="none" xmlns="http://www.w3.org/2000/svg">
<g clip-path="url(#clip0)">
<path d="M69.9808 37.9244C70.2365 34.6162 67.9092 31.6793 64.7845 31.3658C62.3922 31.126 60.2282 32.4941 59.2285 34.6307L56.3928 34.3807L54.2518 33.3479C53.7621 33.1124 53.4328 32.6443 53.3576 32.1069C53.1554 30.658 52.7885 29.2625 52.2785 27.9363C52.1052 27.4871 52.1355 26.9858 52.371 26.5668L53.1337 25.2031L55.2544 23.7802C56.3725 24.2078 57.6741 24.1052 58.7446 23.3872C60.559 22.1694 60.9939 19.663 59.6446 17.8992C58.4831 16.3794 56.3234 15.9619 54.6795 16.9385C53.6321 17.5597 52.9994 18.5911 52.8448 19.6934L50.4944 21.2694L49.0151 21.45C48.5066 21.5121 48.001 21.3373 47.6312 20.9834C46.383 19.7945 44.9731 18.7732 43.4404 17.9555C42.9246 17.681 42.5938 17.1537 42.5577 16.5716L42.3699 13.5754L43.3002 9.88446C44.8835 9.44241 46.1924 8.18703 46.6228 6.4795C47.2729 3.89798 45.6694 1.2789 43.0547 0.696724C40.6956 0.170883 38.2759 1.54616 37.5261 3.84454C36.9425 5.63874 37.4785 7.49362 38.7122 8.70565L37.7775 12.4183L36.3343 14.7384C35.9472 15.361 35.2624 15.7294 34.5286 15.7279C34.5242 15.7279 34.5213 15.7279 34.517 15.7279C33.253 15.7279 32.0164 15.8536 30.8202 16.0891C30.108 16.2306 29.3727 16.0053 28.8729 15.478L26.966 13.4657L24.8309 9.03647C25.3307 8.02091 25.3755 6.79443 24.8468 5.69508C23.8962 3.72463 21.4721 2.94165 19.5349 4.03088C17.8765 4.96555 17.1585 7.02846 17.8808 8.79089C18.3735 9.9928 19.3948 10.796 20.5505 11.0647L22.6986 15.5228L23.1205 18.5146C23.197 19.0664 22.9861 19.6226 22.5527 19.9722C20.8437 21.359 19.3789 23.0333 18.2333 24.9229C17.9487 25.3924 17.4373 25.677 16.8884 25.6813L13.9009 25.7102L10.6303 24.6816C10.4006 22.6476 9.00803 20.8404 6.93068 20.1874C4.13969 19.3091 1.16668 20.8433 0.260904 23.6169C-0.644868 26.3892 0.884976 29.4214 3.6543 30.3373C5.59297 30.9787 7.62987 30.4456 9.00803 29.1354L12.4794 30.2275L15.0147 32.0347C15.3918 32.302 15.5926 32.7498 15.555 33.2092C15.5131 33.7191 15.4915 34.2334 15.4915 34.7535C15.4915 37.5791 16.1126 40.2618 17.2221 42.6743C17.3839 43.0282 17.3796 43.4356 17.2091 43.7852L16.4579 45.3208L14.4196 46.8593C13.2783 46.4938 11.9854 46.6686 10.9568 47.4444C9.21172 48.7619 8.91702 51.2885 10.3616 52.9744C11.6054 54.4262 13.7854 54.7238 15.373 53.6577C16.3842 52.9787 16.9592 51.9155 17.0516 50.806L19.311 49.1013L21.5877 48.6954C23.2447 50.2339 25.1761 51.4806 27.2983 52.3546L27.8328 55.6021L27.1581 58.9565C25.1617 59.4708 23.5408 61.0006 23.1046 63.0404C22.4892 65.9224 24.4697 68.7293 27.5294 69.3086C30.5877 69.8879 33.5664 68.0229 34.1818 65.1409C34.6427 62.9841 33.6502 60.8706 31.8387 59.7005L32.4758 56.5368L34.0403 54.0405C34.1428 53.8772 34.322 53.779 34.5141 53.779H34.517C38.0996 53.779 41.454 52.7822 44.3187 51.0516C44.4762 50.9577 44.6697 50.9447 44.8359 51.0227L47.2859 52.1581L50.1463 55.2525C49.9743 56.362 50.2907 57.5379 51.1127 58.4263C52.5978 60.0313 55.1403 60.0717 56.6745 58.4668C58.0194 57.0583 58.0714 54.8119 56.7944 53.3413C55.968 52.3893 54.782 51.9501 53.6234 52.0368L50.7631 48.9424L49.8342 46.4433C49.7692 46.2699 49.7981 46.0763 49.9065 45.9261C51.0347 44.3775 51.9347 42.6526 52.5559 40.8006C52.7278 40.2921 53.1323 39.8963 53.6494 39.7504L55.9753 39.0989L58.9974 39.3661C59.7385 41.5027 61.589 43.1192 63.8614 43.3475C66.9861 43.6609 69.7265 41.2325 69.9808 37.9244Z" fill="url(#paint0_linear)"/>
<path d="M34.517 20.6661C42.2975 20.6661 48.6049 26.9734 48.6049 34.7539C48.6049 42.5344 42.2975 48.8418 34.517 48.8418C26.7365 48.8418 20.4291 42.5344 20.4291 34.7539C20.4291 26.9734 26.7365 20.6661 34.517 20.6661Z" fill="#C86CDE"/>
<path d="M10.8134 60.365C13.029 60.365 14.8252 62.1612 14.8252 64.3768C14.8252 66.5925 13.029 68.3887 10.8134 68.3887C8.5977 68.3887 6.80154 66.5925 6.80154 64.3768C6.80154 62.1612 8.5977 60.365 10.8134 60.365Z" fill="#BA42CF"/>
<path d="M9.71678 8.84482C11.1803 8.84482 12.3666 10.0312 12.3666 11.4947C12.3666 12.9582 11.1803 14.1445 9.71678 14.1445C8.25331 14.1445 7.06693 12.9582 7.06693 11.4947C7.06693 10.0312 8.25331 8.84482 9.71678 8.84482Z" fill="#BA42CF"/>
<path d="M58.3697 3.23881C60.5253 3.23881 62.2728 4.98627 62.2728 7.14186C62.2728 9.29746 60.5253 11.0449 58.3697 11.0449C56.2141 11.0449 54.4667 9.29746 54.4667 7.14186C54.4667 4.98627 56.2141 3.23881 58.3697 3.23881Z" fill="#BA42CF"/>
<path d="M30.1927 34.9997C32.2024 34.9997 33.8315 36.6288 33.8315 38.6385C33.8315 40.6482 32.2024 42.2773 30.1927 42.2773C28.183 42.2773 26.5539 40.6482 26.5539 38.6385C26.5539 36.6288 28.183 34.9997 30.1927 34.9997Z" fill="#BA42CF"/>
<path d="M33.1137 24.8589C34.4816 24.8589 35.5905 25.9678 35.5905 27.3357C35.5905 28.7036 34.4816 29.8125 33.1137 29.8125C31.7458 29.8125 30.6369 28.7036 30.6369 27.3357C30.6369 25.9678 31.7458 24.8589 33.1137 24.8589Z" fill="#BA42CF"/>
<path d="M40.8909 32.6744C42.0396 32.6744 42.9707 33.6055 42.9707 34.7542C42.9707 35.9028 42.0396 36.834 40.8909 36.834C39.7423 36.834 38.8111 35.9028 38.8111 34.7542C38.8111 33.6055 39.7423 32.6744 40.8909 32.6744Z" fill="#BA42CF"/>
</g>
<defs>
<linearGradient id="paint0_linear" x1="35" y1="69.4141" x2="35" y2="0.5849" gradientUnits="userSpaceOnUse">
<stop stop-color="#B639CA"/>
<stop offset="1" stop-color="#E7A4FE"/>
</linearGradient>
<clipPath id="clip0">
<rect width="70" height="70" fill="white" transform="matrix(1 0 0 -1 0 70)"/>
</clipPath>
</defs>
</svg>
