<svg width="111" height="97" viewBox="0 0 111 97" fill="none" xmlns="http://www.w3.org/2000/svg">
<path d="M75.9774 25.003V21H46.672V25.0233H38.5465V40.2136C36.7221 39.5251 34.7467 39.1472 32.6843 39.1472C23.5026 39.1472 16.0327 46.6171 16.0327 55.7989C16.0327 59.5599 18.5156 65.7262 23.6233 74.65C27.2828 81.0432 30.9946 86.5151 31.0317 86.5697L32.684 89L34.3363 86.5697C34.3661 86.5257 36.7784 82.9696 39.6273 78.2488H83.9692V25.0301L75.9774 25.003Z" fill="url(#paint0_linear)"/>
<path d="M32.6831 47.8066C28.2761 47.8066 24.6907 51.3919 24.6907 55.799C24.6907 60.2061 28.2761 63.7914 32.6831 63.7914C37.0901 63.7914 40.6755 60.2061 40.6755 55.799C40.6755 51.3919 37.0902 47.8066 32.6831 47.8066ZM32.6831 59.7954C30.4795 59.7954 28.6867 58.0027 28.6867 55.7989C28.6867 53.5953 30.4794 51.8024 32.6831 51.8024C34.8867 51.8024 36.6796 53.5951 36.6796 55.7989C36.6796 58.0027 34.8869 59.7954 32.6831 59.7954Z" fill="white"/>
<path d="M57.9913 54.0371H50V58.0334H57.9913V54.0371Z" fill="white"/>
<path d="M73.9827 54.0371H65.9913V58.0334H73.9827V54.0371Z" fill="white"/>
<path d="M57.9913 64.0332H50V68.0295H57.9913V64.0332Z" fill="white"/>
<path d="M73.9827 64.0332H65.9913V68.0295H73.9827V64.0332Z" fill="white"/>
<path d="M57.9913 34.0449H50V38.0413H57.9913V34.0449Z" fill="white"/>
<path d="M73.9827 34.0449H65.9913V38.0413H73.9827V34.0449Z" fill="white"/>
<path d="M57.9913 44.041H50V48.0373H57.9913V44.041Z" fill="white"/>
<path d="M73.9827 44.041H65.9913V48.0373H73.9827V44.041Z" fill="white"/>
<circle cx="84" cy="21" r="17" fill="white"/>
<path d="M86.489 18.6396H93V23.0717H86.489V30H81.5291V23.0717H75V18.6396H81.5291V12H86.489V18.6396Z" fill="url(#paint1_linear)"/>
<defs>
<linearGradient id="paint0_linear" x1="50.001" y1="21" x2="50.001" y2="89" gradientUnits="userSpaceOnUse">
<stop stop-color="#FFCF55"/>
<stop offset="1" stop-color="#D0823A"/>
</linearGradient>
<linearGradient id="paint1_linear" x1="84" y1="12" x2="84" y2="30" gradientUnits="userSpaceOnUse">
<stop stop-color="#FFCF55"/>
<stop offset="1" stop-color="#D0823A"/>
</linearGradient>
</defs>
</svg>
