<svg width="68" height="68" viewBox="0 0 68 68" fill="none" xmlns="http://www.w3.org/2000/svg">
<path d="M59.9774 4.00297V0H30.672V4.02329H22.5465V19.2136C20.7221 18.5251 18.7467 18.1472 16.6843 18.1472C7.50256 18.1472 0.0326538 25.6171 0.0326538 34.7989C0.0326538 38.5599 2.51558 44.7262 7.62329 53.65C11.2828 60.0432 14.9946 65.5151 15.0317 65.5697L16.684 68L18.3363 65.5697C18.3661 65.5257 20.7784 61.9696 23.6273 57.2488H67.9692V4.03006L59.9774 4.00297Z" fill="url(#paint0_linear)"/>
<path d="M16.6831 26.8066C12.2761 26.8066 8.69073 30.3919 8.69073 34.799C8.69073 39.2061 12.2761 42.7914 16.6831 42.7914C21.0901 42.7914 24.6755 39.2061 24.6755 34.799C24.6755 30.3919 21.0902 26.8066 16.6831 26.8066ZM16.6831 38.7954C14.4795 38.7954 12.6867 37.0027 12.6867 34.7989C12.6867 32.5953 14.4794 30.8024 16.6831 30.8024C18.8867 30.8024 20.6796 32.5951 20.6796 34.7989C20.6796 37.0027 18.8869 38.7954 16.6831 38.7954Z" fill="white"/>
<path d="M41.9913 33.0371H34V37.0334H41.9913V33.0371Z" fill="white"/>
<path d="M57.9827 33.0371H49.9913V37.0334H57.9827V33.0371Z" fill="white"/>
<path d="M41.9913 43.0332H34V47.0295H41.9913V43.0332Z" fill="white"/>
<path d="M57.9827 43.0332H49.9913V47.0295H57.9827V43.0332Z" fill="white"/>
<path d="M41.9913 13.0449H34V17.0413H41.9913V13.0449Z" fill="white"/>
<path d="M57.9827 13.0449H49.9913V17.0413H57.9827V13.0449Z" fill="white"/>
<path d="M41.9913 23.041H34V27.0373H41.9913V23.041Z" fill="white"/>
<path d="M57.9827 23.041H49.9913V27.0373H57.9827V23.041Z" fill="white"/>
<defs>
<linearGradient id="paint0_linear" x1="34.001" y1="0" x2="34.001" y2="68" gradientUnits="userSpaceOnUse">
<stop stop-color="#55B8FF"/>
<stop offset="1" stop-color="#3A77D0"/>
</linearGradient>
</defs>
</svg>
