<svg width="22" height="22" viewBox="0 0 22 22" fill="none" xmlns="http://www.w3.org/2000/svg">
<path d="M13.2825 9.955C13.5895 9.53238 13.7737 9.03309 13.8146 8.51234C13.8556 7.99159 13.7517 7.46966 13.5146 7.00425C13.2774 6.53883 12.9162 6.14806 12.4708 5.87514C12.0254 5.60222 11.5132 5.45777 10.9908 5.45777C10.4685 5.45777 9.9563 5.60222 9.51091 5.87514C9.06553 6.14806 8.70428 6.53883 8.46712 7.00425C8.22996 7.46966 8.12611 7.99159 8.16707 8.51234C8.20802 9.03309 8.39218 9.53238 8.69918 9.955C8.30976 10.2032 7.96305 10.5127 7.67251 10.8717C7.59667 10.9698 7.5409 11.0819 7.50838 11.2015C7.47586 11.3212 7.46723 11.4461 7.48297 11.5691C7.49872 11.6921 7.53854 11.8108 7.60016 11.9184C7.66178 12.026 7.74399 12.1204 7.8421 12.1962C7.9402 12.2721 8.05229 12.3279 8.17195 12.3604C8.29161 12.3929 8.41651 12.4015 8.53951 12.3858C8.66251 12.37 8.7812 12.3302 8.88881 12.2686C8.99642 12.207 9.09084 12.1248 9.16668 12.0267C9.39055 11.7421 9.67586 11.5118 10.0013 11.3531C10.3267 11.1944 10.6838 11.1113 11.0458 11.11C11.4079 11.1113 11.765 11.1944 12.0904 11.3531C12.4158 11.5118 12.7011 11.7421 12.925 12.0267C13.0113 12.133 13.1203 12.2187 13.244 12.2774C13.3678 12.3361 13.5031 12.3663 13.64 12.3658C13.8119 12.365 13.98 12.316 14.1253 12.2242C14.2706 12.1324 14.3872 12.0017 14.4617 11.8468C14.5363 11.692 14.5658 11.5193 14.5469 11.3485C14.5281 11.1777 14.4616 11.0157 14.355 10.8808C14.0514 10.5148 13.689 10.2019 13.2825 9.955ZM11 9.28583C10.804 9.2857 10.6123 9.22791 10.4489 9.11965C10.2855 9.0114 10.1575 8.85747 10.0809 8.67702C10.0043 8.49657 9.98253 8.29758 10.0182 8.10483C10.0539 7.91208 10.1455 7.73408 10.2816 7.59299C10.4176 7.4519 10.5922 7.35397 10.7836 7.31137C10.9749 7.26878 11.1746 7.28341 11.3577 7.35344C11.5407 7.42347 11.6992 7.54582 11.8133 7.70523C11.9273 7.86465 11.992 8.0541 11.9992 8.25C12.0041 8.38426 11.9819 8.51814 11.9339 8.64363C11.8859 8.76912 11.8131 8.88364 11.7198 8.98034C11.6265 9.07704 11.5147 9.15393 11.391 9.20642C11.2674 9.25891 11.1344 9.28592 11 9.28583ZM18.755 8.8275C18.6263 7.48817 18.153 6.20499 17.3811 5.10291C16.6092 4.00084 15.5651 3.11743 14.3504 2.5387C13.1357 1.95997 11.7919 1.70566 10.4498 1.80052C9.1076 1.89538 7.81288 2.33618 6.69168 3.08C5.72844 3.72409 4.91981 4.57352 4.32388 5.56727C3.72794 6.56102 3.3595 7.67443 3.24501 8.8275C3.13271 9.97302 3.2768 11.1292 3.66684 12.2121C4.05687 13.295 4.68308 14.2775 5.50001 15.0883L10.3583 19.9558C10.4436 20.0417 10.5449 20.1099 10.6567 20.1565C10.7684 20.203 10.8882 20.227 11.0092 20.227C11.1302 20.227 11.25 20.203 11.3617 20.1565C11.4734 20.1099 11.5748 20.0417 11.66 19.9558L16.5 15.0883C17.3169 14.2775 17.9432 13.295 18.3332 12.2121C18.7232 11.1292 18.8673 9.97302 18.755 8.8275ZM15.2167 13.7958L11 18.0125L6.78335 13.7958C6.16193 13.1744 5.68591 12.423 5.38953 11.5956C5.09314 10.7683 4.98373 9.88551 5.06918 9.01083C5.15518 8.12268 5.43746 7.26473 5.89562 6.49902C6.35378 5.73331 6.97636 5.07898 7.71835 4.58333C8.69088 3.9373 9.83246 3.59269 11 3.59269C12.1676 3.59269 13.3091 3.9373 14.2817 4.58333C15.0214 5.07706 15.6426 5.72851 16.1007 6.49086C16.5587 7.25321 16.8422 8.10755 16.9308 8.9925C17.0191 9.87014 16.911 10.7564 16.6146 11.5872C16.3181 12.4179 15.8406 13.1723 15.2167 13.7958Z" fill="black"/>
</svg>
