<svg width="34" height="34" viewBox="0 0 34 34" fill="none" xmlns="http://www.w3.org/2000/svg">
<g id="24 / maps / pin-round">
<path id="icon" fill-rule="evenodd" clip-rule="evenodd" d="M18.553 25.862L17 27.218L15.447 25.862C9.90026 21.0187 7.08333 16.7327 7.08333 12.7502C7.08333 7.11383 11.4799 2.8335 17 2.8335C22.5201 2.8335 26.9167 7.11383 26.9167 12.7502C26.9167 16.7327 24.0997 21.0187 18.553 25.862ZM8.05453 20.9716C8.6362 21.768 9.28415 22.578 9.99809 23.402C7.35994 23.9962 5.66667 24.8395 5.66667 25.5001C5.66667 26.6433 10.7371 28.3334 17 28.3334C23.2629 28.3334 28.3333 26.6433 28.3333 25.5001C28.3333 24.8395 26.6401 23.9962 24.0019 23.402C24.7159 22.578 25.3638 21.768 25.9455 20.9716C29.1313 21.9383 31.1667 23.489 31.1667 25.5001C31.1667 29.0513 24.8204 31.1668 17 31.1668C9.17962 31.1668 2.83333 29.0513 2.83333 25.5001C2.83333 23.489 4.86871 21.9383 8.05453 20.9716ZM17 5.66683C20.972 5.66683 24.0833 8.69589 24.0833 12.7502C24.0833 15.65 21.778 19.2185 17 23.4545C12.222 19.2185 9.91666 15.65 9.91666 12.7502C9.91666 8.69589 13.028 5.66683 17 5.66683ZM17 8.50016C19.3472 8.50016 21.25 10.4029 21.25 12.7502C21.25 15.0974 19.3472 17.0002 17 17.0002C14.6528 17.0002 12.75 15.0974 12.75 12.7502C12.75 10.4029 14.6528 8.50016 17 8.50016ZM15.5833 12.7502C15.5833 11.9678 16.2176 11.3335 17 11.3335C17.7824 11.3335 18.4167 11.9678 18.4167 12.7502C18.4167 13.5326 17.7824 14.1668 17 14.1668C16.2176 14.1668 15.5833 13.5326 15.5833 12.7502Z" fill="#FA5454"/>
</g>
</svg>
